<?xml version="1.0" encoding="UTF-8"?>
<svg id="Layer_1" xmlns="http://www.w3.org/2000/svg" version="1.1" viewBox="0 0 901.16 987.48">
  <!-- Generator: Adobe Illustrator 30.0.0, SVG Export Plug-In . SVG Version: 2.1.1 Build 123)  -->
  <g id="Shape_17">
    <path d="M545.91,668.76c-1.16-2.49-4.34-4.74-6.8-5.44-9.93-3-19.37-.75-28.06-2.18-.09-.78-.24-1.49-.44-2.16-.27-1.01-.6-1.97-.93-2.92l-2.07-5.63c-.67-1.87-1.33-3.74-1.8-5.67-.22-.96-.39-1.93-.42-2.92.01-.97.14-2,.87-2.74-.34.37-.71.73-.84,1.24-.25.47-.23.99-.33,1.49-.07,1.02,0,2.03.13,3.04.28,2.01.74,3.97,1.23,5.92l1.48,5.8c.23.96.46,1.92.6,2.86.19.95.23,1.88.17,2.63l-.08.99.93.29c4.94,1.51,9.76,1.49,14.48,1.98,4.66.42,9.48.87,13.26,2.53,1.95.97,2.95,1.61,3.83,3.48.77,1.97,1.72,3.93,1.74,5.8.46,3.78-1.75,6.66-4.55,11.43-.6,1.32-1.47,2.99-1.73,4.12l-.44,1.74-.22.87c.05-.36-.1.61-.08.56v.13l-.03.26-.03.53c-.22,2.88.05,5.29.21,7.78.43,4.85,1.03,9.49,1.11,13.96.1,4.42-.37,8.78-1.91,11.69-.79,1.29-1.9,2.53-2.92,2.95-.24.12-.46.27-.67.45l-1.69.48c-1.64.46-1,.31-1.58.26-.8-.06-2.62-.93-4.28-2.02-1.73-1.11-3.51-2.49-5.36-3.9-3.79-2.81-7.43-6.06-13-8.62-2.65-1.19-6.94-2.41-11.52-.56-4.45,2.02-6.54,5.57-7.83,8.27-.68,1.45-1.16,2.76-1.61,4.19-.45,1.47-.81,2.85-1.03,3.92l-.2.87-.1.44c-.1.54-.07.51-.11.79l-.22,2.53c-.25,1.67.13,3.46.42,5.21.25,1.77,1.14,3.31,1.78,4.93.84,1.41,1.76,2.83,2.75,4.04,2.02,2.34,4.19,4.26,6.32,5.84,4.25,3.22,8.46,5.61,11.88,8.09,1.77,1.22,3.12,2.47,4.13,3.59.44.51.75,1.1.94,1.37.07-.08.27-.1.3,1.13l.08.87-.17,1.49-.34,3.13c-.07,2.18-.89,3.88-1.25,5.84-2.31,7.47-6.88,10.95-15.01,12.69-3.99.91-8.58,1.17-13.79,2.06-2.62.46-5.46,1.04-8.65,2.34-.66.19-1.76.79-2.79,1.45-1.02.65-2.01,1.36-2.93,2.1-.69.61-.89.93-1.36,1.41l-.61.66-.3.33c-1.49,1.91-.46.61-.81,1.07l-.08.13-.15.27c-3.68,5.55-4.9,12.38-4.75,18.04.12,5.75,1.16,10.8,2,15.48.87,4.66,1.63,8.99,1.63,12.73.04.95,0,1.85-.14,2.66-.06.86-.19,1.67-.44,2.37l-.28,1.11-.33.68c-.09.22-.16.45-.21.7-.14.32-.64.93-.94,1.38l-1.01,1.41-.09.09-.49.48-1.94,1.96c-1.36.91-2.66,2.21-4,2.58-2.63,1.19-5.01,1.56-7.98.39-.77-.1-1.36-.53-2-.85-.7-.43-1.16-.37-2.13-1.11l-2.84-2.16-.71-.54-.22-.17-.65-.75c-1.89-2.05-3.7-5.69-4.98-9.61-2.51-8.02-3.83-17.08-4.29-26.12-.28-4.53-.26-9.08-.11-13.57.12-4.44.54-9.07,1.34-12.63l2.7-12.13-11.71,2.93c-10.56,2.64-21.38,4.76-31.42,4.56-4.93-.1-9.68-1.06-12.46-2.89-.85-.37-1.08-1.03-1.76-1.44-.06-.19-.15-.33-.3-.44-.08-.06-.17-.11-.27-.16-.11-.14-.23-.61-.34-.9l-.68-1.98-.03-.18-.13-.86c-.13-1.15-.51-2.28-.47-3.45-.89-9.32,2.98-19.02,9.08-27.1,3.03-4.1,6.85-7.68,10.91-10.92,4.03-3.24,8.69-6.01,13.26-8.2,2.13-1.14,4.93-2.13,7.54-3.15,2-.71,4.76-1.4,7.3-1.86,5.23-.98,10.76-1.47,16.36-1.96,5.61-.51,11.34-.9,17.21-1.98,2.94-.57,5.94-1.28,8.98-2.61,2.96-1.26,6.34-3.55,8.02-7.33.72-1.85,1.07-3.81.94-5.57.03-.89-.2-1.81-.33-2.7-.16-.88-.37-1.41-.55-2.13-1.15-3.35-2.81-6.07-4.91-8.34-4.1-4.58-8.96-7.65-13.14-11.13-4.04-3.42-7.97-7.52-7.21-12.7.54-5.08,3.94-9.85,7.39-14.14.5-.17.94-.52,1.13-.99.23-.53.24-1.03.25-1.51-.04-.95-.26-1.83-.5-2.71-.26-.86-.55-1.71-.88-2.54l-.49-1.24c-.07-.16-.2-.51-.2-.51.12.13.25.35.37.52-.12-.2-.17-.39-.35-.59-.17.16.04.42.06.62l.36,1.28c.24.85.44,1.72.61,2.58.14.86.26,1.74.22,2.57-.04.4-.11.8-.28,1.09-.16.29-.4.37-.68.43l-.22.05-.11.12c-3.91,4.07-8.14,8.44-9.4,14.63-.47,1.51-.15,3.12-.08,4.71.44,1.47.78,3.14,1.63,4.41,1.42,2.83,3.56,4.91,5.57,7.02,4.14,4.04,8.56,7.52,11.71,11.57,1.63,1.95,2.65,4.27,3.24,6.27.12.65.34,1.47.37,1.98,0,.51.13.98.05,1.51.02,1.07-.3,1.92-.62,2.69-1.45,2.92-6.92,4.35-12.07,4.92-5.3.61-10.87.76-16.51.94-5.66.19-11.41.37-17.35,1.14-3.04.42-5.82.87-9.22,1.87-2.7.9-5.3,1.63-8.28,2.95-5.78,2.35-11.02,5.26-15.98,8.9-4.92,3.61-9.61,7.68-13.53,12.54-3.95,4.82-7.32,10.24-9.69,16.23-2.39,5.96-3.68,12.57-3.37,19.2-.07,1.66.31,3.29.47,4.94l.17,1.23.09.62.28,1.02.08.25.64,2.01c.13.37.16.6.37,1.08l.85,1.62c.6,1.07,1.25,2.13,1.94,3.13,1.44,1.42,2.85,3.17,4.52,4.13,6.65,4.44,13.5,5.32,19.73,5.73,8.6.35,16.76-.56,24.71-1.97-.13,1.46-.23,2.91-.31,4.38-.21,5.05-.26,10.05,0,15.05.46,10,1.71,20,4.81,30.19,1.71,5.08,3.81,10.36,8.25,15.42l1.74,1.85.11.11.54.44.18.14.35.27.71.54,2.82,2.18c.91.72,2.71,1.64,4.06,2.4,1.47.79,2.92,1.6,4.52,1.99,5.91,2.43,13.88,2,19.8-.9,3.22-1.24,5.51-3.34,7.99-5.21l3.11-3.15.77-.8.19-.2.1-.1.53-.68.26-.37,1.03-1.47c.36-.54.65-.86,1.07-1.59l1.29-2.56c.4-.86.83-1.76,1.14-2.6l.65-2.36c.48-1.59.72-3.14.84-4.67.22-1.57.26-3.05.21-4.48-.07-5.82-1.13-10.9-2.01-15.6-.91-4.67-1.75-9.02-1.84-12.83-.08-3.81.57-6.81,2.17-9.32l.32-.36c.37-.37.89-1.04,1.12-1.17.09.1.12.17.12.2.02-.03.1-.08.4-.16,1.25-.53,3.09-1,5.17-1.37,4.2-.77,9.17-1.22,14.5-2.51,5.28-1.26,11.17-3.52,16.05-7.77,5.1-4.19,7.81-10.16,9.54-15.58.55-2.72,1.53-5.56,1.58-8.19l.34-4,.16-2v-.12c0-.47.05.88-.01-1.09l-.03-.22-.05-.44-.1-.89c.08-.67-.7-3.64-1.66-5.72-.97-1.79-1.96-3.2-3.07-4.45-2.2-2.4-4.51-4.21-6.67-5.66-4.36-2.98-8.51-5.19-11.95-7.58-3.44-2.38-5.93-4.86-6.36-7.1-.06-.6-.38-1.14-.22-1.87.07-.83-.1-1.05.23-2.46.21-1.28.45-2.22.67-3.05.22-.86.54-1.82.85-2.54.62-1.62,1.39-2.32,1.39-2.32-.1-.03.71-.29,2.35.39,3.19,1.24,7.03,4.07,10.92,6.81,1.98,1.39,4.05,2.8,6.4,4.15,2.41,1.27,4.91,2.76,8.91,3.1.95.11,2.08-.01,3.16-.18l.66-.16.11-.04.21-.07.43-.14.85-.28,1.73-.59c.83-.41,1.65-.85,2.45-1.32,3.23-1.85,5.2-4.55,6.69-7.42,2.56-5.83,2.43-11.35,2.12-16.38-.39-5.06-1.25-9.86-1.97-14.47-.32-2.25-.69-4.59-.66-6.48v-.55s-.01-.07-.01-.07l.1-.57.32-1.77c.21-1.21.67-1.63.91-2.53.88-1.87,2.16-4.03,3.21-6.6,1.02-2.57,1.61-5.8,1.02-8.59-.35-2.97-1.67-5.25-2.83-7.63l-.03-.04ZM511.31,773.36s-.01-.02-.02-.03c-.03.03-.03.08.02.03ZM824.6,438.62c-.48-2.26-1.67-4.05-2.57-6.03-1.12-1.71-2.42-3.19-3.65-4.76-1.87-1.95-2.12-2.25-4.26-3.88-1.79-1.39-3.57-2.31-5.48-3.15-3.84-1.63-8.13-2.12-12.03-1.71-3.93.39-7.5,1.56-10.79,2.97-6.61,2.82-12.15,6.81-17.54,10.72s-10.47,8.08-15.78,11.81c-2.67,1.84-5.39,3.57-8.27,4.99-2.88,1.38-6.02,2.41-9.32,2.09,3.18.93,6.7.5,9.94-.39,3.28-.88,6.37-2.26,9.38-3.73,6.03-2.94,11.72-6.36,17.4-9.55,5.67-3.18,11.45-6.07,17.15-7.92,5.72-1.89,11.32-2.08,15.4.29,1.02.59,2.09,1.31,2.8,2.02.52.27,2.48,2.43,2.76,2.9.67,1.08,1.49,2.12,2.09,3.16.25,1.06.97,2.07,1.01,3.05.02.95.33,1.88-.03,2.77,0,.89-.52,1.81-.94,2.73-.37.93-1.32,1.85-1.89,2.81-.97.88-1.74,1.84-2.8,2.7-4.12,3.53-9.42,6.49-14.95,8.82-2.77,1.17-5.63,2.21-8.5,3.04-2.87.92-5.75,1.47-8.42,1.9l-7.95,1.28,1.53,7.64c1.29,6.44,2.79,12.85,4.19,19.27-2.04-1.49-4.52-3.02-7.54-4.21-1.75-.45-3.29-1.13-5.28-1.15-1.93-.13-3.85-.12-5.68.41-.91.22-1.87.44-2.72.74l-2.3,1.14c-.75.4-1.53.8-2.23,1.23l-1.77,1.4c-1.13.95-2.43,1.9-3.23,2.91l-2.7,3.01c-.9,1.01-1.5,2.04-2.26,3.06l-2.16,3.07-2.27,3.23,1.72,4.28c1.18,2.92,2.53,5.83,3.26,8.75.54,1.46.84,2.91,1.04,4.36.31,1.46.52,2.9.48,4.3l.09,2.13-.24,2.04c-.06,1.4-.41,2.7-.83,3.99-.69,2.63-2.11,5-3.7,7.32-.9,1.1-1.88,2.17-2.86,3.24-1.17.94-2.2,2.01-3.42,2.93-2.45,1.85-5.14,3.53-8.03,4.97-2.89,1.44-5.97,2.66-9.13,3.71-3.17,1.04-6.44,1.86-9.75,2.6-3.33.64-6.68,1.29-10.09,1.69-3.4.4-6.84.73-10.29.82-3.45.18-6.91.12-10.36-.03-3.47-.09-6.92-.39-10.37-.78-3.44-.43-6.86-1.04-10.25-1.79-3.37-.81-6.72-1.72-9.98-2.93-3.22-1.26-6.4-2.71-9.33-4.57-3.06-1.73-5.55-4.18-7.88-6.94,1.71,3.06,3.86,6.15,6.67,8.51,2.65,2.55,5.79,4.49,8.95,6.36,3.22,1.77,6.55,3.32,9.99,4.64,3.45,1.24,6.96,2.35,10.53,3.25,14.27,3.62,29.22,4.45,44.17,2.75,3.73-.55,7.46-1.21,11.18-2.15,3.71-.95,7.41-2.11,11.05-3.61,3.64-1.49,7.21-3.35,10.65-5.6,1.73-1.1,3.32-2.52,4.96-3.8,1.52-1.48,3.05-3,4.46-4.63,2.68-3.42,5.1-7.23,6.49-11.48.77-2.1,1.39-4.24,1.65-6.43.17-1.09.37-2.18.49-3.27l.05-3.23c.11-2.19-.08-4.29-.41-6.35-.22-2.11-.58-4.16-1.16-6.09-.53-2.45-1.35-4.73-2.23-6.97.37-.53.73-1.06,1.13-1.47l1.77-1.92c.58-.75,1.17-1.02,1.72-1.51l.82-.69.71-.32c.23-.11.44-.24.66-.38.19-.05.34,0,.5-.06.3-.19.6-.07.88-.06.26-.14.76.28,1.16.26.53.27,1.08.52,1.7.87.68.5,1.3.8,2.06,1.42,1.47,1.1,3.02,2.43,4.8,3.9.88.72,1.78,1.45,2.83,2.22.96.75,2.06,1.52,3.3,2.28,1.09.77,2.6,1.47,4.06,2.12,1.39.69,3.41,1.07,5.11,1.47l11.79,2.76-2.77-12.02-4.49-19.49c-.91-3.8-1.79-7.6-2.69-11.4,4.32-1.33,8.38-2.98,12.44-4.87,6.41-3.09,12.68-6.73,18.3-12.09,1.4-1.33,2.67-2.99,3.96-4.48,1.11-1.85,2.39-3.47,3.19-5.61,1.85-4.07,2.33-9.2,1.12-13.64l.03.04ZM222,567.29h0c.03-.14.04-.19,0,0ZM555.72,487.04c-.34-1.16-.69-1.36-1.04-2.09-1.35-2.45-3.34-4.46-5.47-6.13-8.78-6.5-19.19-8.04-27.75-12.2-8.54-3.7-14.25-11.9-20.13-19.79-3.03-4.05-5.87-8.12-9.75-12.04-.96-.94-1.93-2.05-2.9-2.85l-2.93-2.33c-.6-.44-.72-.66-1.72-1.29l-1.72-1.06c-1.13-.73-2.31-1.39-3.57-1.95-4.89-2.43-10.64-3.68-16.15-3.53-5.5.17-10.59,1.27-15.4,2-4.82.75-9.4,1.12-13.89.7-1.12-.17-2.76-.2-3.46-.48l-3.27-.81c-2.27-.35-4.21-1.35-6.18-2.29-7.99-3.69-13.1-11.75-20.23-19.7-1.8-2.12-3.63-3.88-5.45-5.52l-1.37-1.28-.68-.64c-.63-.54-.64-.5-.99-.77l-3.23-2.4c-4.35-3.13-8.95-5.61-13.53-7.95-9.29-4.59-18.29-8.13-26.79-12.88-8.1-4.45-15.81-11.02-24.82-16.41-4.51-2.7-9.37-5.22-14.89-6.8-5.51-1.57-11.64-2.09-18.02-.38-5.22,1.38-11.44,4.31-15.5,9.97-4.14,5.68-4.9,12.37-4.84,17.79.19,9.94,1.87,18.64,2.11,27.04-2.03,1.8-3.99,3.72-6.23,5.14l-4.33,2.71c-1.48.85-3.14,1.4-4.68,2.12-1.51.75-3.28,1.26-5,1.8-1.68.55-3.46,1.1-5.41,1.64-1.89.55-3.74,1.03-5.83,1.81-2.08.81-3.94,1.19-6.27,2.53l-3.32,1.8c-1.08.61-2.3,1.26-2.91,1.86l-4.52,3.68-.14.11-.67.6-.3.34-.61.68-1.2,1.38c-.83.87-1.5,1.97-2.19,3.04-.72,1.04-1.34,2.15-1.83,3.36-.55,1.18-1.06,2.36-1.36,3.62-1.49,4.98-1.4,10.02-.79,14.4.61,4.42,1.7,8.39,2.69,12.14,1,3.74,1.95,7.34,2.61,10.74l.4,2.36.31,2.84.62,5.91c.49,4.15,1.28,8.41,2.74,12.72.61,2.14,1.78,4.31,2.76,6.42,1.31,2.06,2.53,4.17,4.26,5.94,3.24,3.68,7.25,6.44,10.85,8.43l10.21,5.55c3.2,1.75,6.05,3.71,8.85,5.76l1.94,1.63c-4.7,2.95-10.59,5.69-16.27,8.68-4.29,2.27-8.73,4.7-13.09,8.06-2.17,1.7-4.34,3.65-6.29,6.06-.96,1.35-1.89,2.28-2.79,4.19-.44.87-.86,1.75-1.25,2.63-.47,1.02-.41,1.25-.64,1.92l-.49,1.68c-.06.29-.22,1.01-.22,1.01l-.03.37-.06.75-.08,1.51c-.16,2.19.32,3.42.53,5.16.68,2.98,1.64,5.57,2.68,7.99,2.12,4.81,4.59,9.1,7.17,13.28,5.25,8.27,10.95,15.93,17.28,23.34,1.48,1.74,3.52,4.01,5.04,5.52,2,1.91,3.7,3.5,5.71,5.2,3.94,3.29,8.41,6.36,13.68,8.62,5.24,2.28,11.56,3.28,17.37,2.63,5.83-.6,10.99-2.38,15.68-4.27,9.2-3.81,17.68-8.72,25.04-11.09,3.85-1.45,6.81-1.36,10.33-.99,3.45.52,7.86,2.1,12.52,3.51l6.75,1.97c2.53.73,4.99,1.15,7.49,1.72,4.98.96,10.02,1.55,14.95,1.8,9.83.57,19.48.12,28.24.3,2.14,0,4.45.11,6.81.25l3.5.18,3,.3c4.32.49,8.81,1.28,13.59,2,4.78.69,9.9,1.37,15.55,1.1,5.59-.22,11.96-1.81,17.17-5.26,1.26-.91,2.52-1.71,3.73-2.77,1.17-1.08,2.46-2.28,3.46-3.35l2.26-2.71.57-.71.29-.45.58-.9,1.15-1.81c3.17-4.69,5.21-10.82,5.64-16.67.55-5.97-.51-11.36-1.42-16.02-.93-4.74-1.91-8.95-2.09-12.82-.27-2,.03-3.8.02-5.69.48-1.79.42-3.66,1.21-5.4.56-1.78,1.16-3.56,2.19-5.27l1.33-2.61,1.66-2.36,1.61-2.39c.62-.83,1.51-1.75,2.25-2.62l4.52-5.14c3.65-3.83,6.82-8.38,9.27-13.4,5.08-10.02,5.66-22.77,1.55-33.12-3.96-10.45-11.16-18.76-19.49-25.02-8.4-6.22-18.15-10.67-28.98-12.09-2.71-.32-5.47-.48-8.29-.31-1.39.07-2.8.17-4.42.48l-2.28.41-1.7.45-6.73,1.9c-2.08.67-4.2.9-6.3,1.38-8.4,1.5-16.87,1.51-24.39-.79-6.83-1.99-14.27-6.89-18.62-13.42-4.94-6.77-9.13-15.53-15.67-23.59-1.74-2.07-3.87-4.17-5.85-6.18-.95-.8-1.85-1.45-2.78-2.18l-3.25-2.47c-4.86-3.04-9.97-4.88-15.25-6.01-10.48-2.24-22.07-.98-31.94,4.41-4.84,2.8-9.11,6.44-12.63,10.61-1.65,2.12-3.58,4.74-4.73,6.78l-1.7,3.08-.43.77-.39.74-.22.53-.87,2.15c-2.02,5.77-2.11,11.36-1.64,16.66.54,5.31,1.79,10.39,3.76,15.28,2.11,4.9,4.36,9.53,9.05,14.01,2.2,2.07,4.38,3.17,6.59,4.75,2.39,1.16,4.67,2.6,7.2,3.4,9.98,3.9,20.35,4.09,29.85,3.92,9.52-.23,18.66-.91,27.25.15,2.23.18,4.14.63,6.12.99.95.13,2.19.6,3.27.88l1.68.49c.13.04.56.17.62.18l.61.26c3.48,1.33,6.42,3.54,7.15,5.88.94,2.2.1,4.83-2.35,7.15-2.31,2.25-5.88,3.82-9.69,4.65-6.43.11-13.14-.86-19.86-2.13-6.92-1.29-13.81-3.05-21.25-4.27-3.83-.42-7.46-1.37-12.88.15-1.38.52-2.99,1.35-4.2,2.88-1.27,1.46-1.8,3.34-1.94,4.75-.25,2.94.33,5.18.97,7.12,1.29,3.94,3.16,7.34,4.86,10.5,1.61,3.01,3.24,6.06,4.29,9.1,1.11,2.98,1.73,6.15,1.28,8.11-.29.89-.65,1.5-1.43,2.14-.77.64-2.13,1.13-3.54,1.53-2.96.76-6.44,1.04-10.04,1.35-3.62.37-7.38.55-11.6,2.07-2.06.8-4.45,2.16-6.01,4.6-1.61,2.5-1.66,5.15-1.47,7.44.61,4.39,2.08,7.91,4.37,11.44,4.65,7.02,12.7,10.52,20.12,11.72,7.56,1.3,15.07.8,22.36-.27,7.29-1.16,14.41-3.01,21.34-5.42,6.94-2.51,13.63-5.13,20.08-9.64,5.69-4.91,10.51-10.11,15.71-15.15,5.15-5.01,10.32-10.02,16.07-14.14,2.87-2.02,5.89-3.9,9.13-4.86,3.2-.95,6.71-.43,8.83,2.23,4.29,5.27,5.14,12.91,5.84,19.88.59,7.13.52,14.33.28,21.52.53-7.17.89-14.37.59-21.58-.49-7.09-.8-14.72-5.39-20.97-2.3-3.25-7.03-4.22-10.68-3.19-3.73.95-7.01,2.81-10.07,4.84-6.11,4.13-11.49,9.04-16.83,13.93-5.31,4.85-10.51,10.09-15.88,14.44-5.51,3.61-12.43,6.24-19.08,8.37-6.74,2.13-13.67,3.7-20.62,4.59-6.93.82-13.98,1.02-20.56-.33-6.54-1.29-12.61-4.35-15.82-9.6-1.57-2.48-2.75-5.82-3-8.55-.11-2.78.51-3.56,3.12-4.59,2.61-.89,6.13-1.1,9.65-1.31,3.56-.22,7.3-.34,11.35-1.23,2.04-.53,4.2-1.12,6.35-2.65,2.16-1.47,3.93-3.96,4.64-6.54,1.18-5.14-.08-9.24-1.26-12.96-1.25-3.76-2.96-7.08-4.66-10.41-1.65-3.17-3.14-6.13-4.03-9.03-.51-1.44-.62-2.82-.55-3.45.03-.06.04-.1.05-.14.04-.02.1-.04.2-.11,1.57-.51,5.29-.17,8.48.42,6.71,1.22,13.71,3.13,20.87,4.61,7.17,1.48,14.56,2.75,22.38,2.71h.4l.46-.09c5.18-1.01,10.57-2.91,15.1-7.02,2.29-1.95,4.21-4.71,5.33-7.9,1.19-3.18,1.16-7-.02-10.21-2.35-6.69-7.99-10.16-12.95-12.26l-.96-.41-1.09-.35-1.67-.52c-1.17-.33-2.1-.74-3.46-1.01-2.59-.58-5.23-1.19-7.67-1.44-19.82-2.61-38.97,2.02-54.1-4.36-1.94-.61-3.58-1.79-5.39-2.65-1.52-1.18-3.53-2.29-4.66-3.49-2.06-1.99-4.24-5.85-5.63-9.53-2.85-7.51-3.84-16.58-1.53-22.94l.48-1.1.1-.26.03-.06.44-.76,1.76-3.05c1.21-2.01,2.23-3.08,3.42-4.68,2.62-2.97,5.63-5.4,8.95-7.27,6.72-3.48,14.84-4.53,22.6-2.8,3.84.83,7.61,2.28,10.64,4.21l4.97,3.95,3.64,4.07c5.25,6.44,9.15,14.69,15.06,23.07.77,1.04,1.46,2.1,2.3,3.13l2.78,3.05,1.41,1.51.18.19.67.56.35.27.69.53,2.77,2.13c1.01.71,1.66,1.42,2.95,2.13l3.87,2.07c1.3.66,2.61,1.35,3.92,1.95l3.86,1.21c10.34,3.22,21.09,3.09,31.08,1.38,2.47-.53,5.03-.85,7.43-1.58l6.82-1.88,1.7-.44,1.18-.16c.69-.14,1.6-.2,2.56-.24,1.85-.11,3.77.01,5.7.25,7.73,1.02,15.52,4.53,22.01,9.44s11.81,11.39,14.41,18.48c2.65,7.09,2.26,14.57-1.13,21.35-1.69,3.38-3.92,6.67-6.78,9.61l-4.83,5.41c-.79.91-1.55,1.68-2.35,2.71l-2.42,3.38-2.38,3.41-1.92,3.63c-1.37,2.35-2.35,4.98-3.22,7.68-1.08,2.61-1.26,5.53-1.86,8.29-.11,2.78-.44,5.67-.13,8.32.65,10.92,4.24,19.82,3.36,26.64-.33,3.43-1.27,6.53-3.39,9.61l-1.27,2.01-2.27,2.69-1.65,1.5c-.55.49-1.31.92-1.93,1.41-10.11,7.17-31.17-2.21-50.6-1.33-9.93-.13-19.02.35-27.86-.11-4.41-.2-8.68-.68-12.86-1.46-2.05-.47-4.21-.81-6.17-1.36l-6.7-1.91c-4.28-1.22-8.67-2.92-14.47-3.85-5.68-.82-12.36-.35-17.32,1.58-10.45,3.56-18.22,8.41-26.36,11.75-3.98,1.65-7.81,2.89-11.31,3.26-3.5.38-6.71-.09-10.03-1.48-3.31-1.4-6.66-3.56-9.87-6.23-1.56-1.3-3.27-2.89-4.65-4.17-1.78-1.77-2.84-2.98-4.41-4.77-5.82-6.72-11.31-14.02-16.1-21.45-2.34-3.73-4.53-7.53-6.2-11.25-.81-1.85-1.45-3.66-1.83-5.23-.02-.58-.39-1.63-.22-1.79v-.25l-.03-.13v-.02l.32-1.15c.16-.44.32-1.41.47-1.41.15-.16.26-.32.35-.5,0-.27.75-1.06,1.12-1.64.99-1.25,2.31-2.49,3.83-3.69,3.07-2.4,6.86-4.58,10.85-6.71,4-2.14,8.24-4.21,12.59-6.61,4.33-2.47,8.87-5.12,13.18-9.55l4.94-5.08-4.89-4.77-4.54-4.43-4.9-4.08c-3.42-2.5-6.97-4.86-10.56-6.8l-10.16-5.45c-3.15-1.71-5.55-3.47-7.42-5.56-1.94-2.01-3.25-4.6-4.31-7.61-1.03-3-1.72-6.38-2.15-9.9l-.62-5.63-.34-2.93-.57-3.35c-.83-4.19-1.9-8.06-2.92-11.78-2.09-7.38-3.65-14.17-2.13-19.09.11-.65.4-1.23.67-1.82.21-.61.53-1.19.94-1.75.37-.57.67-1.17,1.2-1.69l.7-.83.35-.42.09-.11,4.29-3.62c.79-.77,1.38-.91,1.99-1.24l1.82-.96c.99-.73,2.97-1.25,4.48-1.88,1.53-.63,3.43-1.18,5.25-1.74,1.78-.53,3.71-1.15,5.7-1.84,1.96-.66,3.92-1.27,5.9-2.25,1.95-.94,3.98-1.71,5.86-2.81l5.49-3.56c3.61-2.43,6.49-5.6,9.72-8.4l1.79-1.55-.03-2.82c-.1-10.8-2.43-20.99-2.7-29.97-.38-9.3,2.81-14.14,11.81-16.75,3.34-.9,7.56-.88,11.65.24,4.13,1.09,8.29,3.08,12.37,5.43,8.24,4.68,15.94,11.06,25.43,16.11,9.04,4.83,18.74,8.47,27.43,12.58,4.34,2.11,8.59,4.32,12.4,6.96l2.82,2.01c.15.1.66.49.51.35l.69.63,1.39,1.25,2.78,2.5c.86.84,1.57,1.68,2.36,2.52,3.09,3.24,6.33,7.35,9.86,11.13,1.89,1.86,3.81,3.8,5.97,5.49,2.35,1.51,4.45,3.43,7.13,4.38,2.56,1.18,5.13,2.34,7.86,2.76l4.03.9c1.72.4,2.62.3,3.97.48,5.5.41,10.99-.12,16.04-1.09,5.07-.94,9.82-2.08,14.35-2.35,4.51-.24,8.82.57,12.94,2.43,1.04.41,2.06.94,3.04,1.54l1.5.85c.1-.02.89.64,1.3.92l3,2.24c.97.75,1.64,1.56,2.48,2.34,3.25,3.06,6.34,7.08,9.38,10.94,3.11,3.92,6.12,8.02,9.88,11.69,1.69,1.96,3.96,3.49,5.93,5.22,1.31.89,2.04,1.42,3.37,2.13,1.24.68,2.48,1.3,3.67,1.79,9.54,4.15,19.74,5.5,27.33,10.89,3.56,2.5,6.9,6.86,5.42,10.46-1.22,4.34-3.9,8.65-6.63,12.74-5.59,8.23-11.96,16.07-17.71,24.4-2.86,4.17-5.59,8.48-7.81,13.08-2.16,4.56-3.94,9.71-3.06,14.96,1.15,5.32,5.88,8.77,10.59,10.29,4.79,1.65,9.81,2.19,14.78,2.64-4.95-.65-9.93-1.41-14.56-3.21-4.6-1.7-8.78-5.18-9.6-9.95-.6-4.77,1.22-9.58,3.5-13.92,2.33-4.37,5.17-8.48,8.16-12.48,5.95-8.04,12.51-15.66,18.49-23.89,2.92-4.17,5.89-8.4,7.57-13.71.31-1.37.65-2.79.43-4.65-.03-.95-.31-1.3-.46-1.98l-.02.02ZM365.09,694.11l1.28-3.3c.69-2.21,1.31-4.46,1.53-6.97.31-2.44.1-5.22-.72-7.93-.82-2.71-2.52-5.35-4.7-7.15-4.41-3.62-9.45-4.57-13.92-4.76-4.55-.17-8.88.51-13.04,1.64-8.23,2.36-16.14,6.3-22.08,13.11-6.07,6.75-7.91,15.22-11.57,21.34-1.7,2.93-4.47,6.06-6.88,9.13-.56.67-1.03,1.72-1.64,2.09-.57.43-1.12.93-2.02,1.55l-4.82,3.49-1.64,1.19.93,1.43c1.12,1.73,1.92,3.57,3.38,5.14.68.8,1.27,1.64,2.17,2.3.85.68,1.6,1.44,2.69,1.86l1.52.71c.55.13,1.13.22,1.69.31,1.12.31,2.27-.03,3.38-.12,2.15-.59,4.04-1.67,5.55-3.07,1.55-1.36,2.85-2.92,3.95-4.57,1.14-1.63,2.08-3.38,2.91-5.15,1.65-3.56,2.82-7.31,3.38-11.13-.93,3.75-2.45,7.33-4.37,10.62-.97,1.64-2.03,3.23-3.25,4.65-1.18,1.45-2.53,2.77-4,3.83-1.45,1.1-3.08,1.79-4.67,2.12-.8-.04-1.61.2-2.35-.12l-1.12-.28-1.03-.62c-.73-.3-1.28-1-1.89-1.56-.65-.51-1.1-1.31-1.6-2.01-.72-.87-1.23-1.95-1.73-3.02l3.48-2.12c.77-.44,1.79-1.13,2.81-1.87,1.07-.71,1.45-1.58,2.21-2.35,2.65-2.97,5.4-5.57,7.96-9.28,4.75-7.17,6.97-14.68,12.08-19.43,4.79-4.84,11.76-8.03,18.66-9.57,3.48-.75,7.04-1.09,10.33-.78,3.29.25,6.28,1.34,7.86,2.87,3.06,2.63,1.67,9.18-2,15.67-2.76,4.8-9.09,9.23-15.53,14.03-1.66,1.33-3.25,2.51-4.98,4.05-1.68,1.61-3.8,3.48-4.83,4.91l-1.88,2.28c-.62.85-.23.34-.4.57l-.1.18-.21.35-.41.71-.82,1.42-3.25,5.7c-.97,1.89-1.69,3.73-2.55,5.6l-2.38,5.32c-1.46,3.17-2.64,6.35-4.95,9.8l-1.52,2.54-.76,1.27-.06.1-.42.55c-1.13,1.47-2.25,2.96-3.43,4.3-2.29,2.72-4.82,5.32-7.04,6.76-1.11.8-2,.99-2.28,1.05-.24-.03.12.09-.41-.22-1.09-.78-3.04-3.74-4.53-6.86-3.2-6.49-5.83-14.11-10.46-21.78-4.32-7.6-13.57-16.21-25.51-15.78-5.73.15-10.44,2.1-14.39,3.93-3.98,1.88-7.41,3.86-10.64,5.42-1.64.79-2.7,1.28-4.78,2.06l-5.05,1.59c-3.52,1.01-7.11,1.94-10.7,2.58-7.2,1.5-14.48,1.92-21.43,1.58l-5.13-.44c-1.44-.33-2.88-.62-4.34-.87-.66-.04-1.56-.35-2.5-.75l-2.74-1.06-1.37-.53-.65-.25h-.01l-2.07-1.19c-10.99-6.62-19.33-19.53-20.83-32.45-1.93-12.82,5.26-25.84,16.37-30.91,5.63-2.56,12.54-3.12,19.63-2.61,7.12.53,14.45,2.12,21.81,4.08,14.87,3.94,29.85,9.06,46.19,11.7,2.03.36,4.11.58,6.2.76,2.04.24,4.21.35,6.45.35l3.31.04,2.94-.21,2.94-.21c1.74-.17,2.64-.4,3.87-.68,4.49-1.14,8.34-2.85,12.15-4.81,3.78-2.01,7.41-4.23,10.9-7.31,1.71-1.62,3.52-3.29,4.94-6.48.65-1.59,1.15-4.01.22-6.42-.93-2.29-2.54-3.61-3.85-4.43-2.71-1.6-4.91-1.98-7.2-2.44-1.19-.2-2.29-.35-3.2-.42-.88-.13-2.3-.16-3.37-.13-2.39-.08-4.44.29-6.56.53l-5.75.93c-3.64.45-7.48.64-11.24.82-3.74-.21-7.68.07-11.29-.54l-5.54-.66c-1.85-.21-3.8-.84-5.7-1.24-1.84-.47-3.98-.87-5.57-1.4l-5.6-1.67c-3.63-1.14-7.24-2.38-10.13-4.36-2.95-1.9-4.79-4.76-4.16-8.07.62-3.33,2.61-6.99,5.1-9.38,2.64-2.46,6.65-1.58,9.99.31,3.39,1.83,6.64,4.18,10.23,5.75-3.43-1.92-6.34-4.51-9.64-6.73-1.67-1.07-3.47-2.1-5.59-2.52-2.12-.46-4.53.1-6.36,1.38-3.43,2.77-5.65,6.27-6.92,10.52-1.42,4.57,1.36,9.69,4.81,12.11,3.4,2.73,7.21,4.33,10.93,5.84l5.55,2.07c2.1.81,3.81,1.22,5.73,1.86,1.91.54,3.67,1.25,5.7,1.64l6.09,1.17c4.1.93,8.09.9,12.16,1.39,4.08.06,8.13.19,12.3-.14l5.94-.64c1.79-.11,3.65-.33,5.19-.16,2.81.09,6.61.87,8.4,1.79-.45.57-1.24,1.4-2.14,2.1-5.17,4.02-12.56,7.31-18.96,8.8-.69.15-1.73.29-1.95.3l-2.95.1-2.94.1-2.58-.17c-1.68-.06-3.43-.2-5.29-.5-1.81-.22-3.63-.47-5.45-.88-14.6-2.86-29.22-8.54-44.52-13.04-7.73-2.23-15.74-4.23-24.28-5.06-8.47-.78-17.78-.51-26.7,3.24-4.38,1.96-8.59,4.53-12.06,7.85-3.62,3.38-6.22,6.8-8.86,11.28l-1.4,2.61c-.47.96-.96,2.37-1.41,3.55-1.05,2.54-1.42,4.8-1.95,7.14-.8,4.67-.97,9.4-.41,13.96,1.05,9.14,4.21,17.74,9.02,25.24,4.82,7.47,10.98,14.24,18.97,19l3.02,1.74.19.11c-.51-.22.91.43.82.38l.34.14.68.27,1.37.54,2.73,1.08c.86.37,1.81.73,3.09,1,2.37.58,4.76,1.13,7.16,1.62,2.25.29,4.39.43,6.6.64,8.71.41,17.25-.26,25.46-2,4.14-.77,8.19-1.85,12.22-3.04,2.09-.69,3.82-1.17,6.2-2.03,1.61-.59,4.16-1.7,6.05-2.66,7.53-3.82,14.06-7.94,18.53-7.91,2.18-.06,4.11.52,6.4,2.08.12.08.5.32.61.38l1.11.93c.67.62.72.75,1.23,1.28.94,1.12,1.88,2.34,2.77,3.77,3.67,5.66,6.43,12.87,10.28,20.36,2.13,3.75,4.03,7.91,9.23,11.92,2.62,1.99,7.02,3.31,10.68,2.66,3.6-.56,6.39-2.05,8.49-3.54,4.31-3.04,7.13-6.37,9.87-9.69,1.38-1.66,2.6-3.35,3.83-5.04l.46-.63.12-.16.43-.67.18-.32.73-1.28,1.47-2.57c2.04-3.18,3.76-7.35,5.42-11.42l2.24-5.56c.72-1.74,1.37-3.6,2.15-5.25l2.45-4.66.6-1.17.3-.59.15-.29.08-.15.03-.06,1.56-2.04c1.25-1.82,2.27-2.42,3.34-3.63,1.17-1.13,2.7-2.37,4.08-3.56,5.78-4.94,13.18-9.48,18.18-18.69l1.24-2.68-.05-.06ZM297.47,659.31c.11.1.09.14,0,0h0ZM141.92,435.41h0c.06-.07.08-.08,0,0ZM171.01,595.87c5.48.38,10.55,1.01,15.13,1.9,4.51.95,8.67,2.25,11.29,4.52,2.7,2.19,2.93,5.55,1.9,8.33-.94,2.79-2.46,5-3.68,6.74-1.28,1.7-2.33,2.98-3.08,3.81-.73.84-1.11,1.27-1.11,1.27,0,0,.43-.38,1.27-1.12.85-.72,2.06-1.85,3.59-3.41,1.46-1.61,3.31-3.61,4.79-6.59.74-1.47,1.32-3.3,1.23-5.38-.08-2.09-1.1-4.28-2.66-5.92-3.16-3.34-7.62-5.15-12.32-6.73-4.76-1.53-9.99-2.58-15.57-3.5-11.17-1.84-23.79-3-37.43-4.19-6.81-.62-13.88-1.29-21.06-2.25-7.07-1-14.7-2.06-20.8-4.52-1.44-.61-2.77-1.35-3.49-1.99-.77-.73-.53-.8-.49-.73,0,0,.22-.9.98-2.01.32-.55.84-1.16,1.32-1.77l2.03-2.62c1.27-1.64,2.55-3.28,3.84-4.94,1.28-1.94,2.53-4.04,3.78-6.09,2.36-4.21,4.34-8.64,5.56-13.73.66-2.48.82-5.24,1.01-7.89-.11-2.71-.18-5.47-.87-8.07-1.1-5.24-3.34-10.01-5.26-13.88-1.95-3.92-3.27-7.23-3.17-9.31.06-1.09.15-2.02.79-3.23l.18-.44.08-.22.04-.11s0-.01.02-.06l.7-1.11,1.8-2.85c1.77-2.25,4.1-4.34,6.03-4.8,1.95-.63,5.09-.14,9.28,1,4.1.95,9.66,3.25,17.38,1.65.93-.29,1.86-.61,2.78-.95l.68-.27.34-.14.95-.53.73-.45c1.03-.69,1.68-.84,3.62-2.63.81-.73,1.59-1.51,2.33-2.31.61-.77,1.06-1.52,1.58-2.3,1.1-1.56,1.66-3.15,2.27-4.76,2.11-6.48,1.63-11.83,1.49-16.55-.24-4.71-.56-9-.15-12.35.22-1.63.5-3.1,1.04-3.98.16-.57.53-.89.8-1.28l.19-.31.2-.18,1.26-1.15c.8-.7,1.76-1.7,2.43-2.14.63-.38,1.24-.77,1.83-1.19.53-.49,1.38-.7,2.06-1.08.71-.36,1.43-.73,2.16-.84,11.09-4.17,25.29,10.05,22.18,23.29-.3,2.19-1.84,5.56-3.69,8.24-2.02,2.79-4.69,5.48-7.57,8.3-2.89,2.86-6.26,5.64-9.33,10.32-1.51,2.27-2.82,5.6-2.73,9.13.13,3.39,1.4,6.48,2.87,8.55l1.09,1.7,1.18,1.3,2.38,2.55c1.26,1.28,2.85,2.68,4.01,3.92,2.47,2.46,4.87,5.22,7.09,7.88,4.41,5.31,8.16,11.16,9.54,16.36.63,2.67.32,4.33-.74,5.5-1.09,1.28-3.52,2.31-6.21,2.74-2.59.5-5.78.68-8.83,1.07-3.09.36-6.01.89-8.87,1.52-2.85.66-5.61,1.48-8.24,2.6-2.6,1.15-5.2,2.53-7.18,5.14-.97,1.31-1.59,3.23-1.3,4.97.27,1.73,1.15,3.09,2.08,4.02,1.88,1.94,3.95,2.94,5.89,3.77,7.88,3.06,14.35,2.98,18.63,3.2,4.32.04,6.61-.12,6.61-.12,0,0-2.29-.14-6.52-.75-4.15-.7-10.54-1.74-17.31-5.22-3.3-1.61-6.72-5.21-4.4-7.03,2.43-2.41,7.66-3.81,12.8-4.5,2.64-.33,5.43-.58,8.26-.65,2.85-.12,5.78.03,9.4-.3,3.44-.29,7.58-1.15,11.23-4.47,1.87-1.62,3.07-4.08,3.66-6.44.17-1.15.4-2.39.41-3.53l-.27-3.27c-1.6-8.22-5.61-14.8-10.04-21.18-2.26-3.19-4.67-6.19-7.42-9.27-1.37-1.6-2.61-2.79-3.99-4.33l-1.48-1.79-.76-.88-.41-.82c-.75-1.16-.82-1.93-.83-2.48.1-.46.19-1.06,1-2.1,1.46-2.06,4.46-4.63,7.65-7.37,6.34-5.54,14.05-12.63,16.43-24.78.42-1.68.33-2.46.45-3.61l.11-1.61.06-.81v-.2l.03-.86-.04-.52c-.12-1.39-.24-2.8-.43-4.18l-.96-4.02c-1.61-5.23-4.33-9.99-7.98-14.08-3.65-4.07-8.32-7.52-13.93-9.52-5.58-2.03-12.15-2.09-17.87-.32-1.5.33-2.84.92-4.16,1.55-1.33.66-2.69,1.12-3.96,2.05l-3.82,2.61c-1.18.88-1.79,1.55-2.71,2.34l-1.27,1.14-.32.29-.15.14c-.15.15-.58.57-.58.57l-.86,1.04c-1.15,1.4-2.24,2.84-2.91,4.43-1.67,3.13-2.24,6.25-2.66,9.11-.69,5.72-.23,10.59-.09,15,.2,4.35.1,8.38-.76,10.65-.22.52-.35,1.14-.66,1.43l-.31.57c-.08.01-.12.04-.12.12.45,0-1.02.87-1.9,1.42l-.25.16-.09.02c-.16.04-.31.11-.46.2-1.37.43-4.9-.17-9.5-1.47-4.5-1.09-10.66-2.75-17.57-.78-3.33,1.01-6.42,2.73-8.78,4.78-2.44,1.96-4.35,4.42-6.21,6.89l-1.79,2.9-.89,1.44c-.49.84-.21.39-.35.65l-.12.28-.25.55-.48,1.12c-1.35,2.81-2.09,6.44-1.98,9.76.33,6.94,3.23,11.78,5.17,15.67,4.21,7.71,6.13,13.37,4.65,20.15-.67,3.3-2.06,6.8-3.73,9.99l-2.67,4.75c-1.2,1.72-2.39,3.42-3.58,5.12l-1.65,2.37c-.75,1.04-1.5,2.05-2.17,3.3-1.3,2.37-2.72,5.42-2.44,9.49.27,4.14,2.97,7.65,5.3,9.33,2.4,1.82,4.69,2.77,6.88,3.6,8.69,2.86,16.44,3.42,24.02,4,7.54.46,14.74.63,21.62.77,13.75.31,26.27.31,37.24,1.09v-.02ZM197.61,315.19v.03c.04-.17.04-.25,0-.03ZM94.61,396.66c3.73,1.87,7.37,2.5,10.74,2.73,6.76.41,12.75-.52,18.38-1.58,5.6-1.11,10.83-2.44,15.68-3.83,2.45-.68,4.72-1.39,6.94-1.89,1.02-.14,2.02-.27,3.01-.4,1-.19,1.99-.31,2.96-.12,7.91.42,14.4,4.82,18.9,8.94,2.16,2.22,4.18,4.18,5.57,6.18,1.51,1.91,2.83,3.57,3.66,5.09,1.81,2.93,2.77,4.49,2.77,4.49,0,0-.69-1.7-1.99-4.89-.57-1.63-1.59-3.49-2.82-5.72-1.09-2.34-2.86-4.66-4.84-7.31-4.15-4.94-10.48-11.17-20.57-12.87-1.23-.35-2.5-.36-3.81-.3-1.31.04-2.65.07-4,.11-2.47.27-4.96.75-7.42,1.14-4.95.82-10.06,1.73-15.35,2.28-5.25.53-10.78.8-15.84.01-2.5-.41-4.86-1.07-6.52-2.1-1.68-1.05-2.55-2.19-3.06-3.84-1.02-3.42.2-9.25,2.47-14.73,1.11-3,2.6-5.39,2.87-5.28.23-.07.4-.13,1.05-.19.7,0,1.83.15,3.1.46,2.64.66,5.84,1.91,9.51,3.04,3.75.98,8.21,2.45,14.2,1.08,2.92-.61,5.82-2.29,7.98-4.25,2.14-1.99,3.73-4.23,4.8-6.34,2.23-4.29,3.33-8.41,4.09-12.36,1.55-7.94,1.92-15.54,2.07-23.13l.04-2.84v-.58l.02-.2.11-1.37.42-5.48c.17-1.79.72-2.68.99-4.07.17-.64.28-1.28.48-1.93l.91-1.91c2.16-5.21,5.87-9.32,10.65-11.44,4.74-2.16,10.41-2.31,15.54-.58,5.19,1.68,9.62,5.43,12.97,9.99,1.91,2.13,2.88,5,4.29,7.53l1.32,4.28.68,2.13.05.16.03.29c.09.62-.04.26-.05.14,0,.04-.02.09-.03.14-.05.21-.05.39-.17.69-.15.53-.36,1.12-.63,1.77-.51,1.27-1.19,2.67-1.92,4.1-1.48,2.91-3.15,5.87-4.65,9.47-.74,1.79-1.49,3.8-1.88,6.48-.06.86-.16,1.16-.12,2.48l.1,1.22.11,1.27.38,1.99c.53,2.61,1.73,5.03,3.67,7.2,2.01,2.18,4.57,3.33,6.86,4.02,4.57,1.1,8.24.64,11.62.18,3.37-.52,6.44-1.23,9.37-2.02,5.79-1.52,11.3-3.19,15.75-3.47,1.09-.08,2,.02,2.66.14.6.17.82.29,1.04.46.5.38.82,2.42.58,4.5-.57,4.96-.83,9.92-1.59,13.89-1.19,8.12-7,13.04-12.49,16.12-5.45,3.11-10.18,5.04-13.37,6.31-3.23,1.23-4.96,1.88-4.96,1.88,0,0,1.81-.36,5.2-1.04,3.37-.78,8.4-1.74,14.54-4.28,3.05-1.27,6.48-2.9,9.72-5.74,3.32-2.72,6-7.1,7.33-11.76,1.44-4.73,2.15-9.27,3.3-14.2.49-2.78,1.2-6.31-1.15-10.46-1.27-2.03-3.35-3.42-5.29-4.13-1.91-.65-3.73-.9-5.38-.95-6.6-.13-12.29,1.26-18.09,2.19-2.88.47-5.73.98-8.45,1.21-2.68.25-5.35.15-6.89-.38-1.35-.69-1.27-.77-1.58-2.16-.28-2.52-.21-2.86,1.12-5.63,1.23-2.46,2.98-5.3,4.68-8.37.87-1.55,1.75-3.18,2.6-5.05.43-.91.84-1.92,1.21-3.03.2-.5.36-1.17.52-1.79.15-.58.33-1.22.43-2.36.1-.91.12-2.3.07-2.47l-.04-.65v-.16c.09.64-.15-1.05-.15-.94l-.09-.36-.74-2.85-1.58-5.73c-1.71-3.67-3.03-7.56-5.63-10.94-4.58-6.94-11.45-13.12-20.04-16.02-8.45-3.02-18.34-3.03-27.04.77-8.76,3.7-15.65,11.28-19.13,19.58l-1.35,3.13c-.34,1.11-.59,2.27-.88,3.41-.48,2.2-1.19,4.82-1.33,6.68l-.35,5.49-.09,1.37-.05,1.3v3.31c-.04,7.02-.36,14.04-1.51,20.32-.51,3.16-1.43,6.06-2.44,8.17-1.13,2.2-1.83,2.88-2.74,3.13-.97.46-3.66.17-6.57-.59-3.03-.78-6.33-1.97-10.38-2.84-2.08-.4-4.36-.75-7.08-.58-2.75.22-5.91,1.19-8.45,3.13-5.2,4.39-5.87,8.76-7.12,11.87-1.11,3.47-2.09,7.01-2.5,10.89-.42,3.8-.45,8.02,1.17,12.32,1.55,4.33,5.18,8,8.89,9.78l.02.05ZM658.24,249.46l1.74.38.44.09.73.09.78.09,3.11.35c2.34.09,5.14.27,7.31.12,4.65-.07,9.01-.66,13.33-1.28,8.5-1.28,16.6-2.97,24.15-3.36,3.82-.31,7.39-.06,10.85.36,3.39.61,6.61,1.49,9.59,2.93l.57.24.11.05,1.31.81,2.66,1.64,3.38,2.95c2.41,2.48,4.66,5.23,6.53,8.31,3.8,6.13,6.28,13.24,7.34,20.33,1.06,7.09.41,14.31-2.46,20.17-.53,1.6-1.75,2.7-2.54,4.12-.95,1.3-2.26,2.29-3.33,3.52l-4.07,2.89c-.45.13-3.91,1.97-4.7,1.84-.64.12-1.27.27-1.91.46-.77.1-1.66.11-2.49.18-1.66.26-3.5-.08-5.27-.13-3.63-.44-7.37-1.29-11.12-2.49-7.53-2.33-15.07-5.59-22.69-8.97-7.04-3.07-14.16-6.37-22.32-8.16-.04-.17-.08-.35-.12-.49-.22-.82-.34-1.37-.41-1.91-.03-.49.01-.95.13-1.44.18-.49.38-1.02.78-1.56.27-.56.86-1.06,1.29-1.6.48-.53,1.1-1,1.65-1.52.55-.52,1.24-.94,1.85-1.42.63-.47,1.27-.93,1.96-1.34,2.69-1.73,5.56-3.31,8.46-4.81,2.89-1.55,5.89-2.89,8.88-4.3-6.35,1.71-12.76,3.41-18.91,6.21-.78.32-1.54.71-2.3,1.12-.75.43-1.54.76-2.27,1.27-.74.5-1.5.93-2.23,1.52-.7.64-1.47,1.12-2.11,1.95-.69.71-1.28,1.62-1.8,2.62-.45,1.06-.74,2.2-.8,3.36-.03,1.11.1,2.17.21,2.95.15.86.08,1.32.05,1.45l-.51,2.5,2.87.87c7.26,2.21,14.36,6.64,21.64,10.63,7.29,4.06,14.69,8.28,22.88,11.58,8.31,3.13,17.03,5.95,28.3,3.76,9.75-1.93,18.6-9.05,23.48-18.12,4.92-9.1,6.01-19.29,5.04-28.7-1.01-9.48-4.23-18.44-9.02-26.57-2.41-4.07-5.36-7.87-8.74-11.39-1.81-1.77-4.08-3.62-6.08-5.2l-2.64-1.68-1.32-.84-.33-.21-.62-.36-.11-.05-.21-.1-.86-.39c-9.11-4.55-19.41-5.37-28.44-4.64-9.18.64-17.51,2.56-25.54,3.86-3.96.58-7.89,1.26-11.62,1.47-2,.21-3.39.11-5.23.18l-3.13-.22-.78-.06h-.16l-.23-.05-1.32-.25c-14.29-2.14-27.48-11.92-41.59-21.13-7.7-4.94-15.71-8.3-24.11-10.85-4.2-1.26-8.49-2.28-12.94-2.88-4.46-.55-9.1-.84-14.07.52-2.45.68-5.13,2.07-7.02,4.42-1.93,2.34-2.63,5.38-2.48,7.84.15,5.09,2.1,9.13,4.1,12.95,4.07,7.62,9.46,14.13,14.97,20.4-4.31-7.17-8.43-14.48-11.24-22.09-1.34-3.75-2.4-7.76-2.06-11.1.31-3.46,2.18-4.74,5.39-5.35,6.71-.75,14.82,1.62,22.05,4.54,7.3,3.05,14.5,6.86,20.57,11.32,6.59,4.96,13.07,10.25,20.49,15.09,7.4,4.71,15.86,8.86,25.26,10.69l.02.02ZM178.24,248.76c1.81,2.51,3.8,4.91,6.84,7.22.65.53,2.56,1.64,2.93,1.77l.42.2.21.1.64.27.13.04,1.02.33,4.09,1.31c5.4,1.42,10.37,2.16,13.28,3.52.89.38,1.69.86,2.44,1.43-.36.19-.73.39-1.12.61-1.82,1.08-4.15,2.37-6.34,5.42-.52.8-1.02,1.58-1.37,2.57l-.5,1.44c-.13.61-.24,1.23-.3,1.86-.06.53-.1,1.48-.07,1.64l.05.63.02.32v.16l.02.04c.15,1.41.06.46.1.81l.06.24c.16.65.36,1.31.61,1.94.51,1.3,1.08,1.91,1.72,2.82.59.68,1.14,1.18,1.75,1.74,1.09.87,2.17,1.59,3.14,2.12,1.98,1.08,3.84,1.86,5.65,2.5,3.63,1.3,7.13,2.09,10.73,2.81,1.41.36,4.84.73,6.59.51l5.17-.43c3.01-.32,5.41.14,5.58.35.09.12.15.14.11-.07,0-.31.24.47.37.76l.13.35h0c-.44.63-1.63,1.67-3.11,3.06-.74.73-1.53,1.49-2.33,2.58-.76,1-1.54,2.28-2.12,4.24-.98,4.88.31,9.82,3.12,13.47,2.92,3.67,6.88,6.21,12.48,6.3l2.55-.29c1.63-.07,2.71-.81,4-1.32,2.05-1.36,3.56-2.94,4.67-4.43,1.19-1.5,2.12-2.98,3.05-4.3l1.24-1.75c.26-.46,1.29-1.38,1.47-1.64l3.74-2.85,4.11-2.3,4.42-1.64,4.66-.78c1.55.11,3.16.07,4.74.28,1.49.47,3.15.7,4.61,1.33,1.37.8,2.9,1.41,4.26,2.4l3.8,3.36-3.18-3.96c-1.17-1.21-2.66-2.19-4.05-3.32-1.48-.96-3.17-1.54-4.8-2.32-1.71-.49-3.51-.72-5.3-1.07-1.79,0-3.63.03-5.46.13-1.76.38-3.58.71-5.36,1.16-1.69.65-3.41,1.31-5.1,2.05l-4.74,2.81c-1.07.88-1.38,1.05-2.21,1.89-.72.74-1.5,1.55-2.02,2.17-1.19,1.33-2.23,2.63-3.3,3.68-1.05,1.14-2.11,1.83-2.93,2.29-.33-.07-.74.27-.84.1l-2.52.06c-1.21-.36-3.57-1.58-4.5-3.43-1.12-1.82-1.33-4.03-.78-5.75.03.38.04.14.38-.16.23-.27.7-.66,1.22-1.07,1.05-.88,2.64-1.84,4.44-3.78.88-.93,1.85-2.34,2.46-4.04.59-1.71.73-3.7.43-5.22l-.09-.6-.05-.3-.2-.66-.19-.6c-.18-.49-.1-.56-.59-1.57-.78-1.74-1.82-2.99-2.93-4.08-2.41-2.17-5.22-3.05-7.5-3.47-2.33-.41-4.39-.45-6.26-.44l-4.98.09c-1.65-.05-1.59-.08-3.46-.55-2.99-.78-6.02-1.78-8.72-2.85-.76-.3-1.48-.63-2.14-.96l3.9-1.82c1.74-.88,3.81-1.79,6.27-4.08l4.34-4.05-2.96-4.66c-1.69-2.66-2.84-5.4-5.4-7.88-1.14-1.27-2.3-2.51-3.82-3.46-1.44-1.01-2.9-2.07-4.43-2.62-6.21-2.75-11.31-3.27-15.5-4.55-1.84-.65-4.75-1.53-4.32-1.62-.92-.71-2.22-2.14-3.28-3.7-2.15-3.09-3.77-7.16-3.86-9.77-.06-.87.07-1.29.13-1.43.2-.1.68-.29,1.48-.41,2.78-.47,7.33.26,11.56,1.41,1.08.3,2.17.57,3.27.95l3.8,1.19c.37.09.45.15,1.05.28l1.82.32c1.26.19,2.18.15,3.29.16,2.14-.12,4.23-.57,6.09-1.28,3.7-1.44,6.42-3.54,8.6-5.38,1.03-.88,2.01-1.76,2.85-2.51.3.66.61,1.38.87,2.1.75,1.96,1.54,4.48,2.4,6.87,1.01,2.7,2,5.23,3.57,8.05.92,1.46,1.7,2.92,3.7,4.74.87.81,2.38,1.9,4.39,2.43,1.99.62,4.71.31,6.23-.43,3.33-1.54,4.45-3.25,5.63-4.6,1.01-1.35,1.83-2.64,2.5-3.83l3.63-6.63c1.08-1.94,2.33-3.87,3.12-4.6,0-.01.02-.02.03-.03l.61.32c.26.14.06.12.13.17,0,.06.12-.04.19.15.23.23.41.39.51.92.3.95.16,2.9-.27,5.09-.4,2.23-1.07,4.67-1.52,7.61-.2,1.49-.41,3.08-.19,5.06.05.93.3,1.98.71,3.06l.29.78.21.42.06.1.12.2.47.81c.19.39.87,1.38,1.59,2.23.6.84,1.73,1.63,2.72,2.29,1.34.64,2.78,1.05,4.27.91,1.38-.08,2.65-.55,3.49-1.01,3.49-1.98,4.97-4.08,6.76-5.87,1.16-1.25,2.28-2.45,3.3-3.35.08.04.15.07.23.11.44.54,1.14.88,1.52,1.5.33.65.89,1.17,1.05,2.03.29.76.53,1.59.58,2.54.29,1.81.2,3.86.06,5.92-.1,2.07-.37,4.19-.59,6.35-.44,4.3-.97,8.75-.51,13.22.25,2.24.81,4.43,1.67,6.48.56.97,1.04,1.97,1.65,2.87l2.17,2.43-1.69-2.72c-.43-.97-.72-1.99-1.08-2.96-.46-2.05-.61-4.11-.5-6.19.26-4.16,1.27-8.27,2.33-12.45.52-2.09,1.1-4.2,1.53-6.42.43-2.2.82-4.48.74-6.97.06-1.22-.11-2.49-.41-3.81-.14-1.31-.86-2.59-1.45-3.87-.64-1.26-1.73-2.25-2.66-3.35-1.08-.82-2.24-1.57-3.4-2.32l-1.29-.83-1.83.87c-3.15,1.51-5.16,3.41-7.1,5.09-1.56,1.42-3.23,2.87-4.31,3.46-.07-.09-.19-.23-.41-.76l-.4-.85-.1-.21-.05-.11-.02-.05c-.14-.29.16.33.13.26l.02-.12c0-.1-.06-.26-.01-.59-.02-.51.15-1.44.39-2.4.49-1.98,1.34-4.32,2.09-6.97.69-2.66,1.49-5.77.89-9.76-.26-1.93-1.14-4.13-2.45-5.85-1.02-1.65-3.92-3.75-4.51-4l-.8-.48-.2-.12-.64-.32-.24-.09-.96-.35c-1.21-.47-2.86-.62-4.3-.49-3.11.31-5.26,1.81-6.73,3.02-3.02,2.59-4.46,5-6.04,7.29l-3.71,5.83c-.44-1.11-.86-2.3-1.23-3.45-.74-2.34-1.33-4.62-2.25-7.36-.97-2.69-1.81-5.37-4.26-8.79-1.24-1.58-3.37-4.12-7.64-4.93-2.06-.38-4-.03-5.48.44-1.44.49-2.5,1.07-3.4,1.62-3.31,2.17-4.93,3.96-6.66,5.32-1.65,1.39-3.07,2.27-4.07,2.62-.49.18-.87.21-1.23.25-.14-.04-.48,0-.45-.04,0,0-.01,0-.03.03s-.52-.14-.76-.21l-.45-.13-.13-.04-.83-.28-1.91-.64c-1.25-.45-2.58-.82-3.9-1.19-5.36-1.38-10.8-2.84-18.01-2-3.49.5-8.19,1.85-11.67,6.01-3.47,4.14-4.07,9.16-3.79,12.73.68,7.4,3.43,12.71,6.86,17.81l.04.04ZM242.35,296.07s0-.02-.01-.04c.07-.08.35-.54.01.04ZM277.11,248.33s-.03.02-.05.02c-.33.06-.2,0,.05-.02ZM266.79,226.92c-.06-.02-.12-.03-.14-.03l-.07-.06v-.02l.21.11ZM229.92,220.67s.02.02.03.03c-.16-.14-.14-.19-.03-.03ZM187.49,228.44h-.01c-.11.08-.11.06.01,0ZM346.81,123.59v-.02c.02-.09.03-.11,0,.02ZM525.23,138.39c-.28,0-.08.06,0,0h0ZM415.79,268.39h0c-.07.09.03.02,0,0ZM328.07,276.48l-.78.95c-.54.69-1.13,1.6-1.66,2.4l-1.03,2.06c-.84,1.75-1.28,2.92-1.93,4.41-1.17,2.87-2.46,5.7-3.42,8.78-2.06,6.01-3.17,12.86-1.59,19.42l1.6,4.85c.64,1.46,1.45,2.7,2.16,4.07.42.73.62,1.18,1.22,2.15l1.42,1.92c.92,1.3,1.9,2.54,3.01,3.67,8.55,9.4,19.72,15.4,30.93,20.17,11.27,4.82,22.91,8.49,34.07,13.41-10.85-5.57-22.3-9.95-33.15-15.37-10.81-5.35-21.42-11.64-28.92-20.75-.98-1.09-1.84-2.27-2.62-3.51l-1.23-1.81c-.2-.32-.64-1.26-.94-1.87-.64-1.36-1.44-2.74-1.95-4.09l-1.05-3.91c-1.04-5.46.06-11.11,2.19-16.56.97-2.74,2.35-5.45,3.62-8.21.64-1.29,1.39-2.95,1.93-3.94l1.12-2.01,1.06-1.32c.45-.49.95-1.03,1.69-2,.65-.92,1.31-2.55,1.29-3.57.18-1.27.04-2.11-.04-3.01-.07-.94-.21-1.76-.37-2.53l-.45-2.38-.77-2.46c-.52-1.47-.79-2.87-1.52-4.4l-3.7-8.55c-.67-1.35-.85-2.64-1.25-3.94l-.54-1.94c-.17-.23-.2-1.37-.31-2.01-.22-1.55-.34-3.03-.34-4.35-.06-1.36-.12-2.73-.03-4.22.01-2.9.32-5.82.61-8.72,1.53-11.52,4.79-23.3,11.18-32.19,3.17-4.37,7.13-7.94,11.7-9.16,2.31-.48,4.63-.93,7.11-.54l.91.05.46.02h.1l1.9.6c1.79.4,2.06,1.08,2.91,1.49,3.76,2.43,7.88,7.17,12.61,11.56,1.22,1.11,2.61,2.2,3.92,3.29,1.39,1,3.28,2.09,4.53,2.88,1.37.74,2.69,1.48,3.71,2.14,1.4.73,2.79,2.03,6.17,2.67,1.47.34,3.23.11,4.53-.14,1.11-.34,2.57-.73,3.31-1.18l1.32-.66.66-.34c.49-.33-.63.51,1.18-.79l.21-.2c.52-.5,1.07-1.01,1.92-2.06.71-.85,1.61-2,2.05-2.68l1.37-2.03c.93-1.36,1.72-2.69,2.59-4.04,1.67-2.7,3.27-5.39,4.83-8.23l1.17-2.18.68-1.48.33-.75c-.08.34.3-.89.28-.85l.07-.28c.2-.83.4-1.29.59-2.41.17-1.26.34-2.66.3-3.83-.1-4.55-1.8-8.64-3.92-11.87-2.15-3.26-4.74-5.83-7.45-8.09-5.47-4.49-11.45-7.62-17.98-9.93-6.08-2.06-11.69-3.61-16.9-5.76-5.14-2.07-9.93-4.8-12.37-7.84-1.14-1.52-1.67-2.9-1.83-4.41l.09-1.26v-.41l.18-.75.54-2.23.27-1.12c.11-.19.22-.29.32-.44,1.27-2.42,3.25-4.41,7.73-4.22,8.76.19,20.37,6.09,27.09,12.88,1.62,1.66,3.79,4.39,6.18,6.82,2.39,2.43,4.99,4.79,8.14,6.91,1.71.98,3.15,2.12,5.22,2.84l2.94,1.14c1.03.32,2.21.46,3.31.66,2.21.52,4.59.26,6.94-.04l.88-.12.44-.06c-.07.06,2.35-.73,1.44-.45l1.06-.45c1.79-.88,3.82-2.53,4.3-3.14,3.22-3.35,4.82-6.2,6.58-9.07,1.67-2.84,3.15-5.62,4.6-8.28,1.41-2.59,2.94-5.36,4.09-6.9.37-.53.26-.3.36-.47l1.75-1.5c.76-.68,1.42-1.2,2.03-1.66-.26,4.5-1.07,9.71-1.72,14.88-.71,6.27-1.75,12.43-.91,20.32.1.98.27,2.01.6,3.18l.45,1.68.81,1.9c.98,2.44,3.64,5.62,7.11,7.06,1.66.61,3.58,1.13,4.94,1.05,1.53.06,3.02-.03,4.08-.32,2.42-.41,4.1-1.16,5.91-1.87-.05.07,1.25-.21,2.29-.26l4.32-.33,9.15-.56c3.11-.2,6.25-.43,9.52-.79,1.65-.19,3.31-.4,5.13-.74.92-.18,1.85-.37,2.96-.68,1.07-.33,2.27-.61,4.37-1.92.6-.43,1.02-.65,1.96-1.67.4-.44.75-.89,1.08-1.4.45-.75.82-1.62,1.06-2.49.28-1.09.32-1.99.29-1.65l.02-.29.04-.57c.06-.73.13-1.5.13-2.6l.03-2.53c-.01-.74.03-1.23.07-1.63.14-1.55.55-2.29,1.83-4.01l1.07-1.22h0l.8-.61c.28-.2.67-.53.86-.63.02.11,0,.21-.04.27,0,.02,0,.04-.03.05h.09c1-.38,3.04.02,4.94.55,3.93,1.37,8.21,4.28,10.52,7.73,1.37,1.67,1.81,3.41,2.15,4.82.18,1.4-.16,2.47-.76,3.76-3.08,4.82-5.54,7.32-10.18,10.35-4.57,2.75-11.63,6.84-16.4,12.79-.73.83-1.43,1.92-2.09,2.98-.36.69-.7,1.4-1,2.11-.31.82-.57,1.85-.75,2.79-.31,2.17.07,4.7.86,6.37.38.92.79,1.64,1.17,2.18.42.67.77,1.11,1.11,1.54,2.73,3.21,4.18,4.54,5.51,6.55.83,1.3,2.11,3.09,3.32,4.72l-5.77,3.4-1.97,1.19-2.36,1.63c-1.58,1-3.23,2.61-4.78,4.13-1.54,1.96-3.11,4.03-3.85,6.77l-.59,1.97-.16,1.87c-.05,1.21-.18,2.6-.02,3.65.35,2.02.64,4.37,1.3,5.96l1.54,4.51c1.13,3.5.94,8.79-.79,12.8-1.63,4.18-4.68,7.38-8.64,9.44-3.96,1.9-9.58,3-13.07,2.06-3.7-.76-8.29-4.04-12.66-7.7-4.51-3.7-9.02-8.12-14.98-11.9-5.75-3.8-14.03-6.64-22.05-5.19-1.57.31-1.49.29-2.86.69-1.12.33-2.06.67-2.83.98-1.68.65-3.22,1.36-4.75,2.12-3.04,1.52-5.92,3.22-8.74,5.18-2.81,1.99-5.55,4.12-8.16,7.15-1.28,1.55-2.61,3.27-3.57,5.92-.26.55-.41,1.43-.55,2.19l-.17,1.18-.05.53-.14,2.29c-.11,3.2-.51,5.81-.83,8.53-.51,2.75-1.06,5.48-1.88,8.07-1.57,5.19-4.1,9.87-7.57,12.94-3.41,3.16-7.8,4.4-12.47,3.9l-1.75-.33-.39-.07-.13-.04-1.08-.37c-1.36-.5-3.14-.96-3.86-1.54-1.84-.89-4.03-2.41-5.9-4.15-7.59-7.01-11.62-18.44-10.63-29.12.47-5.35,2.2-10.54,5.2-14.9,1.43-2.24,3.41-4.07,5.31-5.9l3.53-2.88c1.12-.75,2.19-1.71,3.33-2.33,8.67-5.57,21.06-2.68,32.3.68l5.42,1.62-.95-5.38c-.53-2.96-1.16-5.76-1.48-8.39-.33-2.62-.28-5.08.59-6.67,1.55-3.3,7.66-4.26,13.03-4.18,2.77-.03,5.59.23,8.41.49l8.67,1.14c.34.03.66.1,1.44.02l.98-.13c.39-.11.89-.38,1.28-.65,1.84-1.55,1.24-3.74,1.01-4.32-.59-1.79-1.32-2.99-1.99-4.3-1.29-2.51-2.6-5.02-2.83-7.38-.3-1.99.94-5.16,1.95-7.35,1.19-2.4,2.9-4.52,5.08-6.01,4.36-3.05,10.35-3.42,15.53-1.6,5.09,1.82,9.94,5.92,10.75,11.55.44,2.75-.17,5.65-1.49,8.19-1.31,2.56-3.22,4.8-5.31,6.83,2.2-1.9,4.26-4.03,5.77-6.59,1.51-2.53,2.35-5.55,2.06-8.57-.24-3.03-1.66-5.89-3.67-8.13-2-2.27-4.55-4.02-7.34-5.21-5.54-2.37-12.44-2.4-17.9,1.07-2.71,1.69-4.89,4.17-6.4,6.92-.74,1.33-1.49,2.98-1.89,4.3-.41,1.18-1.08,3.24-.84,4.93.24,3.47,1.67,6.25,2.86,8.91.49,1.05,1.01,2.13,1.33,3.03l-8.37-1.49c-2.94-.41-5.88-.81-8.92-.92-3.02-.16-6.14-.04-9.37.57-3.15.72-6.96,2.32-9.05,5.92-2.03,3.54-1.94,7.21-1.74,10.29.09,1.16.23,2.28.37,3.38l-3.74-1.19c-3.12-.71-6.21-1.51-9.46-1.95-6.37-1.03-14.09-.24-20.24,3.4-1.58.82-2.86,1.87-4.3,2.8l-3.7,2.82c-2.64,2.29-5.22,4.62-7.23,7.5-4.15,5.62-6.61,12.35-7.42,19.14-1.57,13.58,2.67,27.69,12.62,37.73,2.52,2.46,5.24,4.65,8.85,6.48,1.85,1.11,3.09,1.36,4.56,1.95l1.07.4.27.1c.3.09-.28-.07.73.23l.68.15,2.74.57c7.42,1.18,15.91-1.06,21.65-6.22,5.87-5.02,9.3-11.6,11.45-18.03,1.1-3.24,1.84-6.5,2.51-9.76.51-3.35,1.03-6.79,1.19-9.71l.19-2.29.02-.29c0-.09.04-.53.04-.32.02.01.03.04.04.05v-.02c.1-.24.6-1.06,1.31-1.82,1.43-1.6,3.56-3.28,5.8-4.77,2.26-1.49,4.7-2.86,7.18-4.03,1.23-.58,2.49-1.12,3.68-1.55.66-.25,1.17-.41,1.52-.51.08-.09,1.67-.4,1.6-.37,4.22-.57,8.23.77,12.6,3.58,4.34,2.79,8.59,6.94,13.4,11.05,4.92,4.02,10.14,8.71,18.43,10.86,2.29.5,4.9.88,6.09.76h1.15l.57.02h.29c1.48-.06.6-.04,1.02-.07l2.71-.39c3.61-.48,7.27-1.67,10.78-3.26,7.01-3.37,13.03-9.61,15.93-16.85,2.96-7.29,3.78-14.92,1.42-23.11l-1.36-4.16c-.52-1.24-.39-2.01-.66-2.96.07-1.54.08-1.66.85-2.68.72-.55,1.2-1.18,2.24-1.8.49-.32.83-.61,1.43-.98l1.99-1.16c2.3-1.37,5.23-2.86,8.14-4.68.84-.57,1.51-.94,2.53-1.75.91-.79,2.06-1.45,3.57-3.89.36-.69.67-1.14.94-2.07.26-.89.42-1.85.46-2.76.02-1.53-.47-3.49-.84-4.15-.2-.46-.42-.95-.64-1.36l-.51-.83c-.38-.61-.67-1-.94-1.36-2.28-2.99-3.26-4.27-5.18-7.2-1.6-2.45-3.77-4.8-5.19-6.39,2.98-3.35,6.62-5.55,12.24-8.9,2.95-1.93,5.89-4.04,8.68-6.93l2.06-2.26,1.01-1.15.68-.95,1.33-1.88.67-.94.33-.47.44-.65.2-.4c2.35-4.08,3.55-9.18,2.89-13.89-.73-4.55-2.46-8.71-4.86-11.86-4.66-6.58-10.89-10.92-18.38-13.65-3.88-1.12-8.05-2.15-13.09-1.08-1.04.06-2.86.78-4.29,1.42-.75.34-1.48.72-2.18,1.11-.46.29-.65.48-.99.73l-.92.69-.46.35c.11-.12-1.79,1.59-1.1,1l-.25.28-1.97,2.23c-.66.68-1.28,1.68-1.88,2.61-.61.93-1.21,1.85-1.67,3.04-1.03,2.15-1.65,4.79-1.83,6.91-.11,1.12-.17,2.16-.16,2.95v.32c-.87.14-1.78.26-2.71.37-2.81.33-5.77.56-8.76.76l-9.16.6-4.83.4c-1.73.29-3.16.05-6.99,1.5-.68.36-1.36.57-1.89.7-.06-.27-.11-.59-.14-.95-.55-4.28.12-10.4.84-16.24.69-6.04,1.77-12,1.85-19.27,0-1.85-.13-3.93-.65-6.37-.58-1.59-.65-2.68-2.11-4.72-.91-1.66-3.68-3.76-6.03-4.32-1.17-.27-2.44-.43-3.6-.42-.83.1-1.67.24-2.5.42-1.89.36-2.51.88-3.78,1.37-2.06,1.04-3.64,2.04-5.17,3.19-1.54,1.14-3.02,2.3-4.06,3.24l-1.74,1.5c-1.01.89-2.2,2.23-2.69,2.97-2.46,3.42-3.78,6.11-5.32,8.9-1.47,2.73-2.87,5.38-4.3,7.83-1.36,2.37-2.97,4.78-4.03,5.86-.63.05-1.25.27-1.97,0-.39-.09-.76-.03-1.18-.16l-1.31-.53c-.88-.18-1.85-1-2.8-1.48-1.93-1.25-3.9-2.95-5.8-4.83-1.92-1.88-3.54-3.92-6.17-6.63-5.31-5.31-10.97-8.75-17.15-11.74-6.2-2.84-12.86-5.15-20.81-5.16-1.9-.15-4.13.41-6.17.72-2.1.71-4.34,1.31-6.28,2.68-.99.67-1.96,1.37-2.89,2.09-.88.77-1.57,1.72-2.33,2.61-1.59,1.69-2.55,3.98-3.5,6.19l-.65,1.65-.25,1.12-.51,2.24-.25,1.1c-.04.24-.18,1.02-.18,1.02l-.03.41-.05.83c-.05,1.11-.1,2.22-.08,3.33.37,4.61,2.38,8.98,5.03,12.22,5.49,6.35,11.98,9.23,18.05,11.72,6.11,2.43,12.31,4.02,17.82,5.74,4.98,1.62,10.02,4.13,14.03,7.31,4.08,3.11,6.99,7.16,7.04,10.33.02.35-.05.47.04.74,0,.38-.31,1.38-.45,2.04l-.13.28-.27.62-.96,1.89c-1.33,2.56-2.81,5.18-4.31,7.74-.77,1.25-1.51,2.57-2.29,3.76l-1.16,1.82c-.4.61-.46.65-.65,1.05-.12.18-.04.28-.31.56l-.71.72-.7.38c-.58.37-.66.22-.98.43-.17-.02,0,.08,0,.04.52.52-4.04-2.31-6.35-3.41-1.33-.82-2.11-1.22-3.22-1.94-1.04-.85-2.07-1.6-3.13-2.51-4.35-3.68-8.14-8.47-14.75-12.53-1.84-1-4.07-2.17-5.32-2.35l-2.21-.61c.51.1-.99-.23-.97-.2l-.34-.02-.69-.03-1.38-.06c-3.63-.38-7.4.3-11,1.3-7.34,2.34-12.76,7.83-16.53,13.4-7.57,11.45-10.4,24.26-11.75,36.89-.22,3.19-.45,6.37-.37,9.59,0,3.07.25,6.9.79,9.7.18.85.12,1.28.49,2.49l.77,2.45c.54,1.6.97,3.33,1.72,4.7l2.06,4.3,1.89,3.75c.68,1.19,1.09,2.8,1.65,4.17.23.59.61,1.71.7,1.87l.49,2.09c.18.71.33,1.4.39,1.98.1.62.2,1.3.14,1.55.01.52,0,.35-.14.71l-.45.61.09.06ZM504.4,151.01c-.01.16-.02.14,0,0h0ZM461.29,114.09h-.04c.13-.07.19-.11.04,0ZM456.93,111.7v.04h-.01v-.04h.01ZM427.58,133.54l-.35.15h-.22c.17-.09.37-.17.56-.15h.01ZM757.54,334.31c-2.62,1.1-5.18,2.27-7.61,3.58-4.89,2.57-9.5,5.4-13.93,8.34-4.44,2.92-8.63,6.09-12.84,9.02-4.19,2.9-8.41,5.84-12.48,7.71-2.07.8-3.62,1.05-4.47.46-1.06-.71-1.95-3.06-2.34-5.4-.37-2.41-.47-4.96-.51-7.54-.13-2.58.11-5.18.15-7.8-.71,2.51-1.62,5-2.17,7.59-.69,2.57-1.06,5.22-1.26,7.98.02,2.73-.22,5.9,2.31,9.03,1.35,1.52,3.44,2.39,5.22,2.52,1.87.22,3.38-.08,4.96-.33,5.82-1.41,10.58-3.92,15.31-6.31l13.82-7.21c8.98-4.73,18.23-8.81,27-10.49,2.18-.34,4.34-.61,6.38-.53,1.05-.07,2.02.11,3,.23,1,.06,1.93.3,2.83.59.93.2,1.82.49,2.65.95.84.4,1.73.69,2.5,1.27.71.37,1.38.84,2.04,1.35-.18,1.12-.47,2.06-.95,2.78-.9,1.28-2.59,2.6-5.1,3.76-2.48,1.15-5.56,2.21-9.01,3.22-3.48,1.14-7.12,1.88-11.95,4.52l-1.83,1.12c-.88.68-1.85,1.6-2.65,2.53-.41.47-.79.96-1.14,1.45-.33.47-.27.48-.43.74l-.63,1.21-.58,1.39-.02.08-.04.17-.08.34-.14.68-.24,1.38c-.18.87-.18,1.9-.05,2.99.1,2.13.94,4.14,1.89,5.83,2.08,3.3,4.28,4.71,6.11,6.02l4.38,2.73c-.63.5-1.89,1.23-3.55,1.44-2.47.48-5.68.51-8.94.16-3.28-.32-6.67-.88-10.11-1.6l-21.19-4.61c-3.65-.74-7.35-1.4-11.36-1.54-2.04-.02-4.09-.05-6.42.58-1.13.23-2.37.84-3.53,1.61-1.11.96-2.08,2.16-2.43,3.5-.78,2.64-.21,4.79.33,6.7.62,1.89,1.4,3.63,2.29,5.27,1.77,3.33,3.92,6.27,6.05,9.22-1.33-3.4-2.59-6.85-3.48-10.25-.5-1.71-.84-3.41-1.01-5.06-.1-.82.01-1.57-.01-2.33.21-.6.21-1.39.56-1.67.48-1.33,3.59-1.25,6.78-.56,3.2.72,6.53,1.89,9.86,3.02,6.7,2.3,13.39,5.2,20.56,7.36,3.56,1.13,7.24,2.14,11.13,2.92,3.88.75,7.98,1.4,12.72.87,4.64-.61,10.44-2.18,14.55-8.27.53-.99.82-.8,1.88-3.64.87-2.17.95-4.75.38-7.03-1.45-4.87-4.42-6.84-6.05-8.18l-4.53-3.23c-.09-.06-.17-.13-.25-.19,1.8-.75,4.68-1.57,7.53-2.36,3.52-1.02,7.46-2.02,11.53-4.07,4.01-1.97,8.49-4.97,11.61-9.85,3.08-5.01,3.57-10.53,3.38-15.3l-.13-3.15-2.23-1.88c-2.44-2.06-4.87-4.13-7.83-5.66-1.37-.9-2.94-1.47-4.49-2.04-1.53-.64-3.12-1.06-4.74-1.35-1.61-.38-3.21-.64-4.81-.68-1.61-.11-3.21-.23-4.76-.06-3.15.1-6.14.66-9.05,1.32-2.89.71-5.64,1.62-8.31,2.64h-.03ZM766.5,391.02c.03-.16.08-.31.12-.44.47-.69.21-.16-.12.44ZM768.45,375.49s.08.07.1.13c-.13-.12-.17-.19-.1-.13Z" fill="#231f20" fill-rule="evenodd"/>
  </g>
  <g>
    <path d="M338.92,787.42c-5.18,5.77-11.51,8.4-17.91,9.64-3.23.61-6.57.77-10.05.56-1.74-.13-3.48-.36-5.59-.66-2.09-.26-4.47-.56-7.35-.33-.97.09-2.14.25-3.56.65-1.39.41-3.15,1.08-4.91,2.34-1.75,1.24-3.53,3.03-4.93,5.41-1.37,2.38-2.49,5.31-2.81,8.79-.14,1.16-.15,2.53-.04,4.04.14,1.47.44,3.24.96,4.77.97,3.17,2.71,6.21,4.57,8.63,1.87,2.42,3.81,4.29,5.26,5.55,1.45,1.25,2.39,1.95,2.39,1.95,0,0,.77.61,2.07,1.53.66.46,1.53,1.06,2.71,1.7,1.17.63,2.7,1.35,4.77,1.71,1.03.17,2.2.24,3.39.09,1.16-.19,2.33-.43,3.43-.96,2.2-.98,3.89-2.55,4.95-3.88,1.08-1.34,1.87-2.61,2.47-3.64.55-.95,1.06-1.85,1.53-2.66.76-1.3,1.42-2.16,1.83-2.54.41-.37.52-.46,1-.58.45-.12,1.32-.04,2.28.15.95.17,2.03.48,3.13.78,2.21.61,4.55,1.23,6.97,1.31.63,0,1.23-.01,1.8-.04.61-.08,1.18-.17,1.73-.27,1.07-.28,2.18-.65,2.81-.99l.72-.37c.18-.1.33-.18.28-.16v-.02s.02-.03.05-.03c1.53,1.08,2.98,2.11,4.39,3.1,1.47,1,2.89,1.96,4.27,2.89.23.13,1.01.74,1.55,1.14.58.43,1.15.86,1.72,1.29l1.55.95c.51.32,1.01.62,1.45.83.7-2.03,1.34-3.47,1.76-5.11l.3-1.19.14-.59c0-.21,0-.42.03-.6.06-.43.06-.59.08-.87.02-.25.04-.5.03-.75.04-2.01-.2-3.96-.7-5.83-1.01-3.74-2.94-7.23-5.94-10.1,3.03,2.91,4.3,6.79,4.4,10.33.04,1.79-.21,3.53-.72,5.15-.05.21-.13.4-.21.6-.06.18-.18.46-.18.49-.07.15-.14.26-.21.37-.13.2-.26.38-.39.4-.02.02-.04.11-.06.07l-.09-.2-.14-.38-.13-.12c-.08-.09.06.11-.32-.34-1.11-1.25-2.24-2.54-3.42-3.87-.6-.66-1.21-1.33-1.83-2.01-.32-.34-.63-.68-.96-1.03l-.49-.52-.63-.65c-1.38-1.32-3.16-2.38-5.15-2.47-.99-.05-2,.07-2.98.37-.54.17-.88.27-1.17.39l-.73.27c-.4.15-.53.07-.82.14-.15-.02-.31-.03-.47-.01-.2-.03-.4-.06-.61-.08-.94-.15-2.38-.65-4.45-1.44-1.04-.39-2.24-.86-3.77-1.3-1.52-.41-3.35-.88-5.77-.74-2.38.1-5.23,1.12-7.28,2.78-2.08,1.63-3.43,3.52-4.54,5.19-1.21,1.85-2.35,3.84-3.24,4.86-.45.53-.67.57-.66.57.02.04.04.09.06.14l.03.08-.04-.11c-.05-.19-.02-.14-.02-.12l.04.35v-.36h-.05c-.29,0-1.66-.7-2.63-1.42-1.05-.72-1.65-1.18-1.65-1.18,0,0-.73-.55-1.83-1.47-1.09-.93-2.49-2.26-3.75-3.81-1.25-1.55-2.32-3.31-2.94-5.01-.63-1.62-.78-3.13-.76-4.35,0-1.8.47-3.31.97-4.46.53-1.15,1.17-1.92,1.77-2.5.6-.58,1.21-.9,1.84-1.19.63-.27,1.24-.46,1.81-.59,3.41-.78,7.89-.49,12.08-1.27,4.12-.75,7.72-2.03,10.94-3.68,6.46-3.33,11.52-7.73,16.57-13.49h0Z" fill="#231f20"/>
    <g>
      <path d="M599.28,359.36c-3.91-2.47-7.01-5.42-10-8.24-2.99-2.83-5.88-5.61-9.29-8.01-1.68-1.32-3.87-2.01-6-2.41-1.08-.2-2.18-.35-3.3-.45-1.19-.08-2.54.03-3.69.52-2.36.89-4.39,2.52-6.11,4.52-1.7,2.02-3.21,4.42-3.9,7.46-.18.88-.32,2.08-.2,3.19.09,1.14.28,2.39.67,3.68.76,2.59,2.19,5.32,4.14,7.93.98,1.31,2.07,2.6,3.26,3.87.62.63,1.24,1.28,1.91,1.89l.25.23.37.34.64.55c.85.74,1.74,1.43,2.65,2.1,1.82,1.34,3.72,2.55,5.68,3.68,3.93,2.26,7.98,4.18,12.18,6.03,4.31,1.85,8.67,3.18,12.79,4.84,4.07,1.66,8.02,3.62,10.53,6.57,1.25,1.47,2.22,3.14,2.63,4.88.45,1.8.52,3.89.38,6.07-.24,4.4-1.26,9.05-1.28,14.36-.01,1.31.11,2.78.37,4.04.27,1.3.37,2.65.84,3.9.72,2.58,1.77,5.06,3.06,7.38,2.6,4.65,6.15,8.6,10,11.96,3.86,3.38,8.06,6.18,12.33,8.71,4.28,2.52,8.65,4.77,13,6.88,2.21,1.07,4.29,2.06,6.59,3.12,2.44,1.1,5,1.97,7.66,2.53,5.28,1.15,10.97,1.11,16.3-.46.34-.1.65-.18,1.01-.31l1.23-.52c.41-.18.82-.36,1.21-.56l1.09-.73,1.06-.76.9-.87.88-.89.73-.94c1.92-2.53,3.05-5.2,3.85-7.8,1.53-5.21,1.92-10.28,1.79-15.3-.04-1.26-.12-2.51-.25-3.77-.13-1.25-.33-2.61-.48-3.61-.33-2.18-.57-4.4-1.07-6.94-.27-1.28-.59-2.63-1.13-4.07-.57-1.42-1.3-2.92-2.32-4.21-2.01-2.67-4.52-4.31-6.78-5.58-1.95-1.03-3.89-2.06-5.81-3.08-1.8-1.04-3.64-2.02-5.34-3.1-3.49-2.09-6.65-4.37-9.29-6.78-2.69-2.43-4.48-4.96-6.23-8.2-.89-1.65-1.85-3.52-2.86-5.28l-.18-.32h0s.06.02,0,.02h-.01s.97-.82.97-.82c1.48-1.31,2.94-2.6,4.34-3.98,3.65-3.57,7.15-7.45,9.99-12.06,2.82-4.58,4.94-9.96,5.48-15.65.63-5.69-.69-11.43-2.52-16.15-.55-1.24-.97-2.48-1.68-3.7l-1-1.82c-.37-.59-.79-1.17-1.19-1.75-.76-1.19-1.78-2.22-2.71-3.29-1.02-.95-2.04-1.99-3.14-2.76-4.39-3.36-8.73-5.16-12.5-6.99-3.81-1.79-7.25-3.54-10.45-5.56-6.37-3.99-12.19-9.17-17.72-14.34-11.06-10.46-20.88-21.31-31.33-30.55-1.34-1.14-2.68-2.27-3.99-3.38-1.36-1.09-2.76-2.14-4.12-3.19-.69-.52-1.45-1-2.16-1.49l-1.08-.73-.58-.39c-.29-.19-.52-.37-.86-.56-1.35-.68-2.69-1.24-4.02-1.86l-1.99-.9-.99-.45-.49-.22c-.08-.02-.16-.1-.25-.08l-.25.12c-1.31.61-2.61,1.22-3.85,1.87-.65.28-1.21.74-1.8,1.15l-.87.62c-.28.23-.53.5-.79.75-1.08.96-2.01,2.1-2.84,3.31-.88,1.4-1.24,2.15-1.67,3.15-1.61,3.8-2.07,7.1-2.49,10.08-.7,5.93-.88,10.84-1.57,15.08-.66,4.21-1.7,7.66-3.2,10.19-.75,1.26-1.53,2.39-2.45,3.3-.2.25-.45.46-.69.67l-.17.16-.04.04s-.01.03-.02.01c-.06.01.22-.06-.39.13-.27.08-.54.16-.81.24-.32.07-.64.15-.95.22-.61.15-1.31.27-1.95.4-1.31.24-2.6.45-3.81.62-4.85.69-8.4,1.06-10.2,1.29-1.81.22-1.89.23-.07.01-2.13.26-4.16.5-6.38.86-.59.11-1.19.22-1.77.33-.32.07-.77.19-1.15.28l-.59.16-.42.14c-1.04.34-2.08.71-3.15,1.15-1.07.43-2.17.94-3.28,1.55-1.1.62-2.27,1.39-3.15,2.1-1.81,1.47-2.1,1.71-3.09,2.22-.94.48-2.12.96-3.4,1.37l-.46.16-.22.06c-.14.04-.3.07-.45.1-.31.06-.66.07-1.02.09-1.48,0-3.27-.45-4.86-1.18-.21-.09-.4-.18-.52-.25l-.51-.27c-.38-.22-.78-.46-1.18-.72-.8-.52-1.58-1.07-2.3-1.62-.71-.54-1.37-1.09-1.9-1.57-.26-.24-.49-.47-.66-.64-.07-.08-.17-.18-.18-.2l-.05-.06-.2-.27c-2.19-2.87-4.12-5.38-5.85-7.46-3.48-4.17-6.11-6.49-7.64-7.75-1.58-1.24-1.99-1.52-1.99-1.52,0,0-.6-.41-1.76-1.19-1.23-.72-3.05-1.87-5.77-2.86-2.81-1.04-5.98-1.76-9.85-2.08-3.86-.26-8.37-.09-13.27,1.28-4.87,1.35-10.27,3.89-14.87,8.49-4.58,4.62-7.62,10.5-9.63,16.87-.49,1.6-.88,3.25-1.25,4.92-.27,1.69-.65,3.39-.77,5.15-.44,3.5-.36,7.16-.05,10.94.41,3.78,1.27,7.69,2.8,11.63.45.97.9,1.96,1.36,2.94.47.98,1.13,1.93,1.71,2.89.55.98,1.35,1.87,2.09,2.78l1.15,1.35,1.26,1.18c3.38,3.16,7.4,5.47,11.46,7.11,4.08,1.63,8.24,2.63,12.38,3.39,8.27,1.5,16.58,1.84,24.61,2.55,15.94,1.45,32.86,5.19,50.07,10.38,8.32,2.53,16.2,6.11,22.86,11.36,3.29,2.67,6.26,5.75,8.91,9.19,2.66,3.43,4.81,7.35,6.8,11.41.89,2.1,1.89,4.15,2.62,6.36.39,1.09.81,2.17,1.18,3.28l1.03,3.37,1.1,3.64c.41,1.33.87,2.65,1.39,3.96,1.03,2.61,2.26,5.15,3.68,7.58,2.85,4.87,6.49,9.28,10.66,13.03.51.48,1.05.93,1.59,1.38l.83.69,1.02.77c1.38.97,2.8,1.79,4.17,2.41,2.77,1.31,5.38,2.11,7.75,2.92,2.36.79,4.5,1.55,6.18,2.47.44.22.81.48,1.17.7.29.23.59.4.9.72.64.53,1.26,1.28,1.86,2.03,1.18,1.56,2.17,3.41,2.81,5.23.34.91.52,1.8.66,2.64.05.78.12,1.58-.03,2.05,0,.15-.03.27-.08.35-.04.09-.05.2-.09.29-.11.11-.13.29-.22.36-.13.15-.04.17-.71.38-.62.2-1.84.33-3.51.67-1.63.34-3.81,1.06-5.6,2.47-1.78,1.39-2.99,3.07-3.84,4.83-.83,1.73-1.25,3.38-1.56,4.82-.57,2.89-.87,5.09-1.48,6.28-.31.61-.52.95-1.06,1.39-.51.41-1.11.82-2.01,1.16-.85.36-1.89.67-3.09.98-1.16.31-2.5.63-3.94,1.09-1.41.42-3.04,1.08-4.63,2.07-1.62.95-3.13,2.53-4.18,4.19l-.71,1.29c-.24.45-.32.7-.49,1.09-.3.72-.56,1.45-.79,2.19-.46,1.47-.8,2.97-1,4.46-.43,2.99-.39,5.96-.04,8.85.18,1.44.45,2.86.78,4.24.34,1.38.77,2.81,1.07,3.87.68,2.37,1.37,4.97,2.23,7.47.41,1.26.85,2.52,1.34,3.75.47,1.24.94,2.48,1.5,3.69,1.02,2.45,2.26,4.8,3.46,7.15l1.99,3.41c.64,1.15,1.36,2.24,2.11,3.32l2.2,3.24,2.4,3.08c1.54,2.1,3.33,3.97,5.03,5.9,6.98,7.58,14.93,13.95,23.2,19.38l3.11,2.02c1.03.69,2.07,1.34,3.15,1.91,2.14,1.2,4.26,2.4,6.38,3.59,4.38,2.42,9.15,4.12,13.8,5.36,4.69,1.23,9.38,2.12,14.06,2.64,2.34.25,4.66.5,6.98.6,1.16.05,2.32.14,3.47.16l2.45.03c7.44.07,14.2-.57,19.78-1.61,5.61-1,9.97-2.5,12.82-3.51,10.59-3.87,17.93-8.98,24.25-14.23,6.31-5.32,11.67-10.94,18.1-17.56-6.44,6.6-12.15,11.91-18.74,16.76-6.6,4.79-14.11,9.18-24.5,12.43-2.82.85-7.06,2.09-12.48,2.79-5.41.76-11.97,1.1-19.13.73l-2.36-.13c-1.11-.07-2.22-.2-3.33-.29-1.12-.09-2.23-.22-3.34-.38-1.11-.16-2.23-.26-3.34-.47-4.46-.68-8.9-1.71-13.24-3.03-4.36-1.35-8.53-3.01-12.43-5.37-2-1.22-4.01-2.45-6.03-3.69-1.02-.59-2-1.25-2.96-1.95l-2.91-2.04c-7.73-5.49-15.04-11.76-21.29-19.03-1.52-1.85-3.13-3.63-4.49-5.62l-2.12-2.91-1.92-3.04c-.66-1.01-1.28-2.03-1.84-3.09l-1.73-3.16c-1.02-2.17-2.09-4.33-2.94-6.58-.48-1.1-.87-2.24-1.26-3.38-.42-1.13-.78-2.28-1.12-3.45-.72-2.32-1.28-4.65-1.93-7.2-.36-1.4-.63-2.42-.87-3.52-.23-1.1-.4-2.2-.51-3.29-.2-2.19-.16-4.36.2-6.43.17-1.04.44-2.04.76-3,.17-.48.35-.95.55-1.41.09-.19.24-.55.32-.65.09-.12.16-.25.23-.38.36-.45.63-.83,1.25-1.15.61-.33,1.36-.68,2.42-.96,1.02-.3,2.18-.55,3.51-.86,1.3-.31,2.74-.67,4.28-1.26,1.52-.54,3.18-1.42,4.68-2.6,1.5-1.14,2.89-2.89,3.73-4.56,1.71-3.44,1.94-6.46,2.49-8.56.49-2.18,1.14-3.22,1.75-3.63.25-.17.57-.31,1.45-.48.85-.18,2.19-.25,4.06-.71.9-.21,1.99-.61,3.03-1.16,1.05-.59,2.05-1.37,2.84-2.24.82-.85,1.38-1.82,1.94-2.81.42-.98.89-2.03,1.05-3,.87-4.02.19-7.41-.76-10.43-1-3.04-2.4-5.78-4.23-8.34-.96-1.27-1.95-2.51-3.23-3.68-.59-.59-1.34-1.15-2.06-1.7-.7-.48-1.39-.93-2.08-1.31-2.78-1.57-5.47-2.52-7.91-3.41-2.42-.87-4.67-1.64-6.47-2.55-.93-.44-1.69-.93-2.37-1.43l-.49-.38-.62-.54c-.43-.37-.85-.74-1.25-1.13-3.28-3.08-6.06-6.58-8.22-10.41-1.08-1.91-2-3.9-2.76-5.95-.38-1.02-.72-2.07-1.03-3.12l-.99-3.52-1.08-3.76c-.4-1.25-.85-2.48-1.27-3.72-.8-2.49-1.9-4.9-2.9-7.33-2.24-4.78-4.74-9.49-7.95-13.79-3.18-4.29-6.87-8.22-10.96-11.61-8.26-6.71-17.75-11.07-26.95-13.97-2.34-.76-4.54-1.41-6.75-2.05-2.23-.63-4.44-1.25-6.64-1.87-4.42-1.21-8.85-2.31-13.25-3.29-8.85-1.95-17.48-3.38-26.11-4.26-8.52-.82-16.36-1.23-23.39-2.57-3.5-.66-6.78-1.51-9.65-2.68-2.85-1.18-5.25-2.66-7.1-4.41l-.71-.64-.55-.7c-.36-.47-.79-.86-1.07-1.44-.3-.55-.68-1.02-.95-1.6-.27-.59-.53-1.17-.8-1.75-.92-2.46-1.52-5.1-1.8-7.79-.47-5.4.16-10.8,1.6-15.41,1.45-4.6,3.63-8.49,6.09-10.92,2.46-2.47,5.57-3.98,8.58-4.79,3.02-.84,5.93-.95,8.4-.79,2.47.2,4.59.72,5.87,1.21,1.4.49,2.42,1.16,3.13,1.56.7.47,1.05.72,1.05.72,0,0,.24.18,1.26.97,1.01.85,2.77,2.35,5.71,5.86,1.48,1.76,3.22,4.05,5.48,6.99l.22.28.39.48c.28.34.51.58.76.85.49.52.96.97,1.43,1.4.94.86,1.89,1.63,2.89,2.4,1,.76,2.05,1.51,3.21,2.26.58.38,1.2.75,1.87,1.14.36.2.69.39,1.11.6.43.22.81.39,1.17.56,2.98,1.31,6.49,2.41,10.82,2.42,1.09-.02,2.21-.09,3.37-.3.58-.11,1.17-.22,1.76-.39l.88-.26.63-.21c1.66-.55,3.47-1.24,5.48-2.26.99-.49,2.07-1.18,3.05-1.88.97-.72,1.73-1.37,2.22-1.76.49-.4.83-.59,1.3-.88.48-.26,1.05-.54,1.72-.81.66-.27,1.41-.54,2.2-.8l.15-.05.07-.03c.44,1.33-.58-1.89-.38-1.29l.2.56.19.56c.09.28.04.1.06.15h.03l.06-.02.27-.07c.38-.07.75-.14,1.14-.21,1.71-.28,3.73-.53,5.77-.79-1.76.22-1.69.21.07,0,1.78-.23,5.26-.6,10.54-1.36,1.32-.19,2.76-.42,4.35-.72.81-.16,1.61-.3,2.53-.52.45-.11.91-.22,1.38-.33.51-.15,1.03-.3,1.56-.46.25-.07.53-.16.88-.3.36-.15.73-.29,1.1-.44.41-.15.78-.37,1.14-.62l1.1-.71c.42-.17.74-.49,1.04-.77l.77-.72c.43-.4.87-.8,1.27-1.26,1.69-1.74,3.17-3.83,4.47-6.08,2.61-4.55,4.02-9.81,4.81-15.04.81-5.23.98-10.59,1.55-15.51.29-2.41.73-4.74,1.39-6.27.47-1.05.31-.64.33-.72h-.02c.46.31.93.62,1.39.94.59.4,1.19.76,1.78,1.2,1.18.9,2.37,1.81,3.58,2.73,1.19.99,2.39,2,3.61,3.02,9.72,8.41,19.58,19.11,31.29,29.95,5.91,5.38,12.21,10.95,19.96,15.7,3.84,2.36,7.95,4.36,11.87,6.14,3.92,1.79,7.61,3.41,10.2,5.39.71.46,1.21,1.04,1.83,1.55.49.61,1.09,1.11,1.51,1.8.23.33.48.64.7.98l.62,1.1c.46.69.74,1.59,1.13,2.38,1.42,3.59,2.21,6.95,1.89,10.44-.28,3.46-1.52,6.98-3.54,10.41-2.02,3.43-4.82,6.73-7.96,9.88-1.19,1.22-2.48,2.4-3.79,3.6l-1.16,1.02-2.16,1.85c-1.45,1.22-2.9,2.44-4.36,3.67-.38.3-.71.62-1.12.92.2.39.56.8.83,1.2l1.76,2.43c.59.81,1.13,1.64,1.69,2.46l.84,1.24.42.62.19.31c1,1.6,1.87,3.25,2.91,5.09,1.08,1.87,2.3,3.86,3.79,5.76,1.49,1.88,3.16,3.64,4.92,5.19,3.54,3.1,7.32,5.66,11.21,7.88,1.94,1.16,3.91,2.17,5.89,3.25,1.92.97,3.86,1.94,5.81,2.92,1.57.83,2.83,1.7,3.5,2.6.39.43.64.97.93,1.6.27.64.5,1.47.71,2.38.41,1.86.73,4.12,1.13,6.42.22,1.24.36,2.12.5,3.14.13,1,.22,2.02.27,3.06.22,4.12-.07,8.37-1.07,12.13-.51,1.86-1.25,3.54-2.13,4.77l-.32.47-.36.36-.34.38-.37.26c-.12.09-.24.18-.35.29l-.39.17c-.13.06-.25.13-.38.2-.18.07-.45.15-.67.22-3.69,1.19-7.77,1.38-11.78.62-2.01-.36-4-.98-5.93-1.78-2.07-.88-4.32-1.88-6.45-2.84-4.3-1.94-8.53-3.95-12.59-6.19-8.06-4.43-15.66-9.89-20.09-17.21-1.09-1.82-1.98-3.74-2.61-5.74-.42-.97-.5-2.04-.76-3.05-.26-1.06-.36-1.97-.39-3.04-.16-4.22.66-8.94.78-13.96.06-2.51-.06-5.18-.84-7.91-.8-2.8-2.35-5.21-4.18-7.2-1.86-2-4.05-3.52-6.26-4.7-2.22-1.19-4.47-2.11-6.7-2.91-4.45-1.59-8.85-2.74-12.86-4.29-4.09-1.62-8.18-3.34-11.95-5.31-1.89-.99-3.72-2.05-5.45-3.21-.87-.58-1.71-1.18-2.51-1.82l-.61-.47-.35-.29-.24-.2c-.64-.52-1.22-1.09-1.8-1.63-1.16-1.14-2.22-2.28-3.15-3.43-1.87-2.29-3.22-4.61-3.96-6.75-.38-1.07-.58-2.09-.7-3.03-.14-.97-.06-1.66.03-2.41.42-2.4,1.61-4.65,3.02-6.51,1.42-1.85,3.14-3.39,5.01-4.24.95-.47,1.88-.59,2.89-.61,1.08.03,2.14.09,3.18.21,2.07.25,4.01.72,5.67,1.84,6.99,4.2,12.07,10.39,19.84,15.4l.04-.02Z" fill="#231f20"/>
      <path d="M515.87,585.65c-1.68,9.05-3.16,16.8-2.84,25.43.19,4.3.81,8.8,2.45,13.57,1.67,4.71,4.24,9.68,8.55,14.32.74.77,1.59,1.67,2.73,2.65,1.12,1,2.48,2.11,4.24,3.26,1.74,1.18,3.89,2.38,6.59,3.45,2.69,1.08,5.91,1.97,9.64,2.38,3.58.41,8.42.38,13.4-.61,4.98-.94,10.12-2.83,14.43-5,4.34-2.16,7.95-4.53,10.47-6.3,2.52-1.77,4.01-2.94,4.01-2.94,0,0,1.24-.96,3.27-2.55.99-.81,2.18-1.78,3.5-2.86,1.36-1.16,3.02-2.58,4.72-4.58.85-1,1.7-2.17,2.46-3.5.37-.65.73-1.38,1.07-2.2.31-.8.59-1.61.79-2.45.8-3.3.8-7.18-1.12-11.01-.96-1.89-2.48-3.6-4.07-4.75-1.61-1.18-3.25-1.86-4.65-2.3-2.83-.85-4.89-.98-6.4-1.21-.98-.11-1.59-.29-2.32-.42-.71-.1-1.36-.42-2.04-.6-.66-.23-1.27-.56-1.9-.81-.6-.33-1.18-.66-1.75-.98-2.23-1.4-3.99-3.11-5.37-4.76-.73-.8-1.24-1.68-1.81-2.44-.46-.82-.95-1.56-1.28-2.3-.72-1.45-1.17-2.73-1.49-3.78l-.2-.8-.2-.94-.15-1c-.11-1.37-.09-2.78-.14-4.13-.06-1.37-.02-2.67.02-3.95.01-.64.03-1.27.04-1.9v-.24c0-.07-.06-.06-.09-.09l-.21-.14h-.35c-.47-.02-.93-.03-1.38-.04-.79,0-1.57-.01-2.35-.02-.39,0-.77.05-1.12.07-.35,0-.7.07-1.04.18-.66.12-1.31.37-1.94.75-.32.18-.62.3-.93.49-.31.23-.62.46-.93.74-.61.52-1.23,1.17-1.81,1.91l-.84,1.29-.21.31c-.07.11-.17.14-.1.56l-.38.67c-.5.92-.94,1.89-1.37,2.81l-.32.69c-.1.21-.24.51-.26.59l-.29.75-.57,1.48c-.38.98-.75,1.95-1.12,2.92-2.99,7.72-5.7,15.07-10.08,23.2,4.47-8.08,9.18-14.34,14.06-21.03.61-.84,1.23-1.68,1.85-2.52l.94-1.28.47-.65c.11-.15.07-.12.08-.16v-.08c0-.1.05-.19.1-.26l.04-.06c.11.23.1.17.1.17h.02l.06-.04c.08-.03.14-.03.19,0,.09.05.17.23.05.41v.03s.14-.21.1-.15l-.07.11-.1.14s0,.02-.03.02h-.04l.02-.02s0-.07.02.08c.05.41.1.82.15,1.23.27,1.61.68,3.59,1.48,5.87.38,1.15.94,2.32,1.51,3.62.67,1.23,1.35,2.6,2.3,3.93,1.81,2.7,4.24,5.57,7.66,8.15.88.6,1.79,1.24,2.75,1.85,1.01.54,2.02,1.13,3.13,1.63,1.14.44,2.26,1,3.52,1.32,1.23.35,2.6.74,3.72.92,1.78.33,3.39.63,4.26.98.43.17.64.31.64.35h0l.07-.07.05-.05h.02v-.02c.7-.65.19-.18.35-.32h-.02l-.12.1s-.17.11-.26.15l-.2.09c-.09.04-.02,0-.05.02-.01.02,0,.01,0,.05.01.04,0,.13.01.24,0,.22-.05.56-.14.88-.04.17-.11.32-.17.48-.06.12-.15.31-.28.52-.25.41-.57.85-.97,1.31-.8.92-1.91,1.91-3.06,2.88-1.23,1.01-2.33,1.91-3.25,2.66-1.85,1.47-2.99,2.36-2.99,2.36,0,0-1.36,1.06-3.55,2.63-2.2,1.56-5.24,3.61-8.67,5.44-3.43,1.85-7.21,3.4-10.87,4.31-3.64.94-7.04,1.19-9.52,1.13-2.59-.07-4.77-.48-6.62-1.01-1.86-.52-3.41-1.19-4.73-1.87-1.32-.66-2.39-1.35-3.3-1.97-.92-.6-1.63-1.2-2.26-1.7-3.69-3.03-6.51-6.52-8.76-10.04-2.22-3.53-3.86-7.24-5.06-11.02-2.35-7.57-3.21-15.58-1.6-24.68v.07Z" fill="#231f20"/>
      <path d="M585.29,662.09c-1.28,5.23-2.58,10.01-3.91,14.64-.33,1.16-.67,2.3-.99,3.44l-.5,1.71-.71,2.58-.29,1.31-.14.66-.04.17-.02.08s.04-.02.06-.04l.27-.18c.76-.49,1.38-.95,2.29-1.49.22-.14.44-.25.65-.35l.52-.25c.24-.13.51-.19.77-.28.52-.17,1.04-.32,1.59-.37,4.3-.68,9,1.57,11.6,5.38.69.93,1.12,2.01,1.49,3.11.33,1.19.57,2.44.68,3.75.21,2.62-.04,5.44-.64,8.43-.32,1.62-.81,3.65-1.52,6.04-.35,1.19-.76,2.48-1.2,3.85-.46,1.4-.89,2.81-1.45,4.05-.55,1.25-1.28,2.38-1.99,2.91-.36.27-.67.4-1.03.48-.39.09-1.08.11-2.14.15l-.41.02c-.23.01-.69.05-1.07.11-.8.1-1.77.36-2.66.76-1.77.81-3.19,2.12-4.17,3.53-1.01,1.42-1.65,2.96-2.06,4.57-.19.81-.32,1.64-.38,2.5-.04.9,0,1.69.07,2.47.34,3.14,1.34,5.7,1.83,7.81.47,2.03.62,4.05.45,6.21-.37,4.29-1.96,8.75-4.35,12.85-2.37,4.11-5.66,7.86-9.45,11.31-3.79,3.45-8.12,6.58-12.72,9.57-4.6,3-9.93,6.09-14.8,10.91-2.4,2.44-4.77,5.45-6.22,9.28-.76,1.88-1.16,3.94-1.34,6.16-.06,2.2.15,4.5.9,6.63,1.37,4.34,4.33,7.74,7.62,10.13,3.34,2.38,7.16,3.8,11.14,4.36,1,.11,2.01.19,3.02.2,1-.03,2.09-.03,2.97-.16,1.87-.18,3.66-.57,5.41-1.04,3.5-.95,6.68-2.4,9.62-4.03,5.88-3.26,10.81-7.36,15.29-11.36,4.31-3.9,8.24-7.18,11.61-8.25,1.65-.53,3.29-.69,5.18-.48,1.88.22,3.98.81,6.21,1.67,2.25.87,4.56,1.97,7.17,3.18,2.59,1.19,5.21,2.36,7.92,3.44,5.4,2.15,11.08,3.97,17.04,4.94,5.96.98,12.12,1.05,18.12-.1,3.15-.55,6.02-1.6,8.79-2.71,2.7-1.24,5.31-2.58,7.66-4.24,4.76-3.21,8.82-7.25,11.94-12.03,3.13-4.72,5.17-10.5,5.22-16.4.17-5.82-1.78-11.36-4.23-15.46-2.46-4.18-5.28-7.24-7.8-9.83-2.55-2.58-4.87-4.69-6.83-6.56-1.03-.98-1.77-1.72-2.48-2.49-.71-.77-1.33-1.54-1.91-2.27-1.13-1.48-1.94-2.85-2.58-4.02-.58-1.18-1.01-2.17-1.25-2.95-.27-.78-.38-1.36-.46-1.74-.1-.39-.1-.57-.1-.57,0,0-.02-.19-.06-.55-.08-.38-.03-.88-.04-1.54.07-.64.14-1.41.46-2.26.24-.86.83-1.87,1.61-2.88.81-1,1.93-2.01,3.58-2.96,1.64-.95,3.79-1.82,6.41-2.45,2.6-.65,5.62-1.09,8.97-1.33,3.59-.26,7.78-.48,12.36-1.2,4.58-.77,9.78-1.95,14.97-4.98,2.57-1.51,5.05-3.45,7.18-5.82,2.18-2.35,3.92-5.21,5.21-8.24,2.53-6.14,2.83-12.89,1.56-19.05-.63-3.1-1.62-6.11-2.94-9.01l-1.07-2.15c-.39-.7-.81-1.4-1.22-2.1-.8-1.3-2.04-3.01-2.34-3.44,0,0,.01.02.01.03h-.01s0,.02-.01.01h0s-.04.03.18-.07l.93-.41c4.99-2.18,10.06-4.4,15.19-6.65,5.13-2.26,10.33-4.54,15.57-6.84,1.28-.57,2.65-1.13,4.35-2.01,1.66-.87,3.59-2.03,5.4-3.9,1.8-1.83,3.31-4.49,3.88-7.19.61-2.73.4-5.45-.35-7.88s-1.99-4.64-3.76-6.51c-.86-.94-1.9-1.79-3.03-2.52-1.05-.66-2.04-1.15-3.08-1.56-4.16-1.62-7.94-1.74-11.22-1.73-3.3.07-6.12.27-9.17.48-3.01.21-6.05.5-9.1.87-6.09.75-12.26,1.92-18.31,3.87-6.03,1.96-12,4.68-17.26,8.59-2.59,2-5.07,4.15-7.2,6.63-2.25,2.42-3.97,5.08-5.53,7.34-1.56,2.29-3.03,4.29-4.56,5.74-1.54,1.47-3.04,2.32-4.78,2.68-1.74.37-3.69.2-5.52-.46-1.84-.66-3.4-1.74-4.9-3.33-1.47-1.56-2.73-3.49-3.85-5.61-.56-1.06-1.09-2.16-1.6-3.29-.48-1.09-.97-2.17-1.45-3.25-1.02-2.11-2.16-4.28-4.03-6.28-.94-.99-2.09-1.92-3.47-2.6-1.37-.69-2.97-1.03-4.42-1-2.99,0-5.48,1.32-7.21,2.7-1.77,1.41-3.03,2.96-4.09,4.48-1.07,1.53-1.82,3.04-2.54,4.42-.33.71-.64,1.41-.95,2.08-.27.69-.53,1.35-.78,1.99-.93,2.58-1.52,4.84-1.86,6.68-1.31,6.76-.85,13.04.82,18.44,1.67,5.42,4.61,9.88,8.15,13.33,3.55,3.46,7.75,5.93,12.32,7.54,2.29.81,4.7,1.34,7.21,1.64l.45.06s.15-.01.16.05v.19l.08.94c.04.64.09,1.28.14,1.92.08,1.29.16,2.61.24,3.96-.07-1.35-.13-2.66-.19-3.96-.03-.65-.05-1.29-.08-1.93l-.03-.96-.02-.28c0-.1-.16-.06-.23-.09l-.48-.08c-2.47-.4-4.82-1.09-7-2.06-4.35-1.92-8.11-4.74-11.04-8.34-2.93-3.59-5.07-7.91-6.02-12.85-.96-4.93-.81-10.49.79-16.3.42-1.58,1.09-3.51,2.05-5.68.26-.54.52-1.09.8-1.66.3-.56.62-1.13.94-1.73.71-1.16,1.43-2.39,2.31-3.46,1.68-2.2,4.24-4.1,5.95-3.82.87.06,1.49.46,2.38,1.48.85,1.03,1.65,2.61,2.35,4.38.39,1.05.78,2.11,1.18,3.17.48,1.28,1,2.57,1.59,3.88,1.18,2.6,2.66,5.28,4.72,7.77,2.01,2.46,4.83,4.8,8.07,6.15,3.22,1.39,6.91,2.01,10.64,1.46,1.86-.27,3.71-.83,5.43-1.67,1.69-.82,3.21-1.89,4.54-3.03,2.67-2.29,4.63-4.83,6.39-7.13,1.79-2.32,3.28-4.4,5.05-6.09,1.69-1.81,3.66-3.34,5.71-4.78,4.16-2.82,9-4.81,14.13-6.23,5.13-1.43,10.58-2.27,16.16-2.73,2.79-.24,5.6-.41,8.45-.5,2.8-.09,5.84-.19,8.4-.14,2.55.05,4.73.37,6,.97.31.13.62.32.8.45.07.08.19.15.29.3.23.25.42.67.49,1.02.09.36.05.62,0,.72-.07.12-.03.08-.25.3-.21.2-.76.58-1.66,1.01-.87.42-2.16.93-3.52,1.48-5.3,2.17-10.55,4.32-15.74,6.44-5.18,2.13-10.3,4.23-15.34,6.3l-2.65,1.1c-1.26.52-2.46,1.13-3.52,1.88-2.14,1.46-3.68,3.51-4.64,5.82-.9,2.35-1.07,4.9-.56,7.37.49,2.48,1.65,4.88,3.09,7.08,1.17,1.75,1.47,2.15,2.03,3.06l.71,1.28.63,1.32c.78,1.79,1.34,3.65,1.68,5.47.69,3.66.33,7.1-.81,9.73-1.14,2.62-3.1,4.69-5.64,6.13-2.51,1.47-5.8,2.31-9.26,2.85-3.52.52-7.16.7-10.97.94-4.06.27-8.02.79-11.82,1.72-3.79.9-7.44,2.25-10.72,4.12-3.28,1.85-6.17,4.28-8.3,6.94-4.3,5.28-5.61,11.05-5.8,14.68-.06,1.82-.04,3.24.09,4.13.1.91.16,1.38.16,1.38,0,0,.04.48.23,1.34.17.88.44,2.18.97,3.76.5,1.6,1.27,3.46,2.32,5.52,1.08,2.01,2.43,4.23,4.16,6.48.88,1.11,1.81,2.26,2.87,3.4,1.05,1.15,2.24,2.31,3.27,3.29,2.14,2.04,4.38,4.07,6.46,6.18,2.08,2.1,4.03,4.31,5.33,6.54.66,1.12,1.19,2.22,1.5,3.34.34,1.1.55,2.3.49,3.46.17,4.53-3.57,10.84-9.81,15.08-1.51,1.12-3.21,1.98-4.92,2.82-1.75.71-3.55,1.42-5.35,1.73-3.85.79-8.13.85-12.53.2-4.42-.64-9.04-1.99-13.78-3.79-2.37-.89-4.79-1.91-7.25-2.98-2.43-1.06-5.17-2.32-8.17-3.41-3.02-1.09-6.39-2.06-10.16-2.39-3.75-.34-7.91.1-11.66,1.49-3.74,1.38-6.82,3.41-9.45,5.47-2.62,2.08-4.87,4.22-6.97,6.19-4.06,3.85-8.14,7.33-12.44,9.9-2.14,1.27-4.31,2.34-6.46,2.99-1.07.32-2.15.6-3.2.73-.57.12-.95.08-1.42.14-.45.01-.91-.02-1.37-.03-1.83-.19-3.69-.79-5.17-1.77-1.45-.99-2.55-2.21-2.99-3.47-1.08-2.31.08-6.07,3.28-9.48,1.59-1.72,3.52-3.4,5.65-5.01,2.14-1.64,4.39-3.16,6.82-4.9,4.75-3.43,9.42-7.09,13.62-11.33,8.4-8.32,14.97-19.36,15.35-31.41.07-2.99-.34-6.07-1.19-8.9-.86-2.73-1.76-4.81-2.04-6.56-.15-.92-.16-1.49-.04-2.28.13-.74.38-1.47.72-2.01.33-.57.71-.92,1.05-1.14.18-.09.33-.18.68-.25.15-.03.4-.08.57-.1l.3-.04c.84-.11,2.04-.16,3.43-.57,1.42-.42,2.71-1.21,3.68-2.12,1.94-1.85,2.8-3.86,3.47-5.6.65-1.77,1-3.37,1.36-4.77.35-1.44.68-2.8.96-4.09.56-2.57.94-4.83,1.16-6.66.41-3.37.43-6.7-.12-9.86-.28-1.58-.73-3.1-1.29-4.54-.65-1.47-1.43-2.87-2.45-4-1.95-2.33-4.47-3.87-7.06-4.76-2.6-.9-5.38-1.02-7.91-.33-.64.14-1.24.38-1.83.65-.3.13-.6.24-.86.42l-.19.12-.07.04s-.1.05-.14.08c-.18.13-.34.28-.54.44-.15.16-.07-.04-.07-.11l.03-.29.09-.37c.03-.13.06-.22.13-.58l.34-1.75c.23-1.16.47-2.33.7-3.51.96-4.71,2.01-9.56,3.28-14.79l-.02.06Z" fill="#231f20"/>
      <path d="M302.04,191.31c-9.19.81-17.07.37-25.07-.92-3.99-.67-8.01-1.59-12.14-2.92-4.11-1.33-8.42-3.1-12.48-5.67-.72-.4-1.47-1.01-2.41-1.65-.48-.31-.94-.73-1.46-1.14-.52-.43-1.09-.86-1.65-1.41-1.16-1.04-2.43-2.32-3.74-3.92-1.37-1.56-2.64-3.53-3.9-5.81-1.34-2.51-2.61-6.07-2.81-9.81-.14-.94.03-1.87.02-2.82.05-.47.15-.93.21-1.4.07-.47.12-.96.23-1.31.1-.37.21-.7.32-.97.16-.36.09-.19.1-.23h-.03s-.12,0,.21,0c.47,0,1.39.19,2.24.36,1.7.36,3.32.86,4.74,1.33,2.84.96,4.82,1.71,4.82,1.71,0,0,1.58.61,4.46,1.58,1.45.48,3.25,1.04,5.4,1.54.55.11,1.11.23,1.69.35.63.1,1.27.22,1.93.3,1.31.15,2.68.25,4.09.23,2.82-.02,5.82-.41,8.88-1.39,3.05-.97,6.22-2.69,8.86-5.3,1.29-1.32,2.45-2.84,3.28-4.49.91-1.68,1.37-3.26,1.72-4.57.66-2.63.95-4.53,1.29-5.57.17-.58.32-.88.29-.88-.13-.11-.29-.23-.43-.38l-.15-.16c-.08-.11.05.07.08.13l.05.12h0c.06.12-.51-1.03-.26-.54v.02l.03.04.03.07.07.16.16.42.07.22h0s.04-.04.09-.06c.11-.04.3-.08.56-.11.49-.07,1.39-.09,2.19-.11,3.23-.09,6.12-.03,8.67.12,5.1.28,8.85.83,11.42,1.23,2.6.42,5.05.88,7.39,1.39,2.47.47,4.06.98,4.56,1.33.27.15.54.41.72,1.03.17.6.21,1.43.13,2.31-.22,1.81-.62,3.75-1.28,5.52-1.29,3.59-3.38,6.94-6.28,9.75-2.89,2.8-6.66,5.08-11.18,6.07,4.51-.97,8.51-2.65,12.08-4.93,3.56-2.29,6.71-5.19,9.26-8.85,1.29-1.84,2.33-3.84,3.24-6.15.42-1.2.78-2.54.82-4.14.06-1.57-.35-3.56-1.49-5.22-1.12-1.66-2.64-2.77-4.01-3.54-1.39-.78-2.68-1.29-3.85-1.78-2.42-1-5.01-1.93-7.79-2.76-2.76-.82-6.82-1.92-12.48-2.82-2.83-.44-6.06-.83-9.71-1.03-.92-.04-1.79-.12-3.11-.09-1.28.04-2.93.18-4.84.92-1.87.76-3.66,2.03-4.97,3.61-1.31,1.56-2.05,3.16-2.6,4.56-.97,2.54-1.4,4.78-1.93,6.4-.26.81-.49,1.41-.74,1.72-.22.4-.53.73-.9,1.08-.77.66-1.89,1.32-3.33,1.72-1.43.41-3.06.61-4.62.59-.78,0-1.55-.07-2.27-.16-.36-.06-.71-.12-1.05-.17-.39-.08-.76-.16-1.13-.24-1.5-.35-2.92-.79-4.13-1.19-2.44-.81-4.08-1.42-4.08-1.42,0,0-.49-.18-1.36-.49-.88-.32-2.2-.79-3.9-1.34-1.71-.55-3.84-1.18-6.38-1.68-1.28-.22-2.59-.49-4.47-.56-.84-.03-2.19,0-3.35.22-1.19.2-2.37.56-3.49,1.09-2.23,1.06-4.16,2.82-5.52,5-.68,1.04-1.26,2.41-1.56,3.26-.34.95-.58,1.87-.77,2.76-.2.91-.27,1.72-.36,2.54-.08.82-.18,1.64-.22,2.45.04,1.63-.05,3.26.22,4.82.73,6.3,3.19,11.5,5.39,14.9,2.04,3.11,4.08,5.59,6.07,7.49,1.95,1.95,3.79,3.41,5.42,4.6.79.63,1.6,1.1,2.32,1.57.73.46,1.38.9,2.03,1.23,1.29.69,2.33,1.3,3.31,1.7,5.72,2.62,10.99,3.62,15.83,4.07,4.85.43,9.26.26,13.47-.13,8.42-.78,16.02-2.53,25.22-3.43v.02Z" fill="#231f20"/>
      <path d="M567.21,179.81c2.29-.32,4.41-1.06,6.3-2.18,1.88-1.15,3.42-2.7,4.79-4.36,2.6-3.43,4.36-7.43,5.22-11.8.49-2.19.64-4.47.63-6.87-.08-1.2-.1-2.43-.34-3.68-.19-1.3-.45-2.45-.64-3.47s-.28-1.95-.22-2.64c.07-.69.25-1.01.48-1.15.24-.17.35-.21.83-.38.47-.15,1.22-.33,2.18-.41.65-.06,1.47-.08,2.53-.05.53,0,1.12.06,1.78.11.76.06,1.58.12,2.48.19,3.57.26,8.25.6,14.58.97,2.67.14,6.26.34,10.14.55,3.98.19,7.88.28,10.72.88,2.92.57,4.46,1.54,5.34,2.36.91.85,1.44,1.75,1.44,1.75,0,0,.12.15.31.51.2.35.49.88.84,1.65.72,1.53,1.58,4.05,2.85,7.51.65,1.71,1.44,3.66,2.55,5.7,1.1,2.03,2.43,3.96,3.91,5.7,2.95,3.5,6.52,6.16,9.73,7.91,1.65.88,3.29,1.64,4.93,2.2.82.3,1.64.53,2.44.76.78.19,1.71.42,2.2.51,2.29.47,4.12.97,5.21,1.44.06.02,0,0,.02,0,0,0,.02,0,0-.01.03,0,.01,0,.02,0,.04.02-.02,0-.03.03-.12.12-.24.24-.35.36-.22.25-.46.44-.67.62-.41.37-.76.67-1.08.9-.32.23-.56.46-.83.62-3.61,2.49-7.77,3.88-11.82,4.6-4.07.73-8.03.74-11.99.29-7.9-.94-15.5-3.47-23.65-7.73,8.14,4.35,14.46,8.97,22.47,12.26,3.97,1.63,8.45,2.93,13.53,3.23,5.04.28,10.86-.29,16.88-3.3.43-.2.87-.48,1.41-.78.54-.29,1.15-.68,1.87-1.19.37-.25.78-.52,1.19-.87.22-.17.44-.36.68-.55.36-.3.73-.62,1.12-.95,1.55-1.42,3.12-3.44,3.79-6.17.09-1.15.61-3.19-.35-5.63-.49-1.19-1.08-2.54-2.23-3.72-.24-.33-.57-.6-.89-.89-.33-.28-.63-.6-1.01-.86-.37-.27-.76-.54-1.16-.8-.33-.29-.91-.56-1.23-.75-2.49-1.34-5.09-2.18-7.74-2.94-.75-.2-1.08-.33-1.58-.49-.47-.18-.95-.34-1.43-.56-.97-.4-1.93-.93-2.9-1.52-1.88-1.18-3.98-2.91-5.66-5.05-1.73-2.18-2.81-4.4-3.88-7.39-1.04-2.9-2.12-6.11-3.26-8.51-.56-1.21-1.11-2.21-1.52-2.9-.39-.69-.67-1.07-.67-1.07,0,0-.07-.11-.22-.33-.14-.22-.35-.53-.67-.94-.61-.8-1.53-2-2.97-3.28-1.41-1.29-3.34-2.62-5.51-3.6-2.18-1-4.57-1.68-6.91-2.06-4.72-.8-9.21-.63-12.98-.63-3.88.05-7.48.09-10.15.13-6.34.1-11.03.25-14.61.36-.89.03-1.72.06-2.48.09-.87.03-1.67.07-2.44.14-1.53.13-2.87.36-4.06.63-1.76.42-3.61,1.06-5.41,2.23-1.8,1.14-3.49,3.06-4.29,5.16-.88,2.11-.87,4.32-.58,5.99.31,1.69.83,3.02,1.33,4.18.51,1.16,1,2.12,1.34,2.96.42.86.68,1.78,1,2.69.49,1.84.92,3.73,1.02,5.64.31,3.81-.21,7.69-1.89,11.31-.91,1.75-2.08,3.48-3.74,4.81-1.67,1.31-3.74,2.24-6.04,2.55v-.02Z" fill="#231f20"/>
    </g>
  </g>
</svg>