<svg xmlns="http://www.w3.org/2000/svg" viewBox="0 0 220 220">
  <title>Mayie emblem</title>
  <g fill="none" stroke="#1f1b16" stroke-width="6" stroke-linecap="round" stroke-linejoin="round">
    <path d="M112 18c-24 2-49 15-65 36s-22 51-8 74 46 34 70 26 40-40 34-65-34-46-62-47c-21 0-42 11-55 28" />
    <path d="M70 70c-17 11-25 34-18 52 6 15 26 26 42 23 18-3 31-20 30-36s-15-32-32-38c-11-4-25-3-35 3" />
    <path d="M136 90c14 9 28 23 31 39 4 18-6 38-24 48-16 9-38 9-53 0" />
    <path d="M150 46c10 6 20 15 25 26 5 12 3 27-5 37" />
    <path d="M52 132c-11 7-23 9-33 4" />
    <path d="M96 146c-4 9-5 20-1 29s13 17 23 19" />
  </g>
</svg>
